<svg aria-hidden="true" style="width:0;height:0;position:absolute;overflow:hidden" xmlns="http://www.w3.org/2000/svg"><defs><symbol id="logo-color" viewBox="0 0 106 32"><path fill="#f1a501" style="fill:var(--color1,#f1a501)" d="m68.571 26.514 8.686 2.743 7.314-7.314 9.143 6.4 9.6-1.829L99.2 13.257l-14.629 4.571-8.229-4.571-8.686 1.371.914 11.886z"/><path style="fill:var(--color2,#000)" d="M.841 22.001v-1.977l5.594-1.009v2.734c.027 1.486.407 2.608 1.136 3.365.757.729 1.753 1.093 2.986 1.093 1.206 0 2.159-.393 2.86-1.178.729-.785 1.094-1.837 1.094-3.154V1.267h5.804v20.608c0 2.747-.912 5.074-2.734 6.982s-4.15 2.86-6.982 2.86c-2.944 0-5.313-.883-7.108-2.65-1.766-1.795-2.65-4.15-2.65-7.066zm20.807 3.449c0-1.766.574-3.182 1.724-4.248s2.635-1.738 4.458-2.019l5.089-.757c1.037-.14 1.556-.631 1.556-1.472 0-.785-.309-1.43-.925-1.935-.589-.505-1.445-.757-2.566-.757-1.178 0-2.117.323-2.818.967-.673.645-1.051 1.445-1.136 2.397l-4.963-1.051c.196-1.795 1.079-3.378 2.65-4.752s3.644-2.061 6.224-2.061c3.084 0 5.355.743 6.813 2.229 1.457 1.458 2.187 3.337 2.187 5.636v10.178c0 1.234.084 2.327.252 3.28h-5.132c-.141-.617-.21-1.445-.21-2.481-1.318 2.047-3.351 3.07-6.098 3.07-2.131 0-3.856-.617-5.173-1.851-1.29-1.234-1.935-2.692-1.935-4.374zm8.285 2.061c1.317 0 2.397-.365 3.238-1.093.869-.757 1.304-1.99 1.304-3.701v-.925l-4.668.715c-1.711.252-2.566 1.122-2.566 2.608 0 .673.238 1.248.715 1.724.476.448 1.136.673 1.977.673zM61.859.636v26.706c0 1.374.056 2.621.168 3.743h-5.341c-.141-.701-.21-1.499-.21-2.397-.477.869-1.234 1.57-2.271 2.103-1.009.533-2.187.799-3.533.799-2.944 0-5.37-1.024-7.276-3.07-1.879-2.075-2.818-4.682-2.818-7.823 0-3.056.925-5.622 2.776-7.696 1.878-2.075 4.261-3.112 7.15-3.112 2.971 0 4.921.855 5.846 2.566V.637h5.51zM46.214 20.698c0 1.822.476 3.267 1.43 4.332.953 1.038 2.187 1.556 3.701 1.556 1.486 0 2.705-.533 3.659-1.598s1.43-2.51 1.43-4.332c0-1.795-.477-3.196-1.43-4.206-.954-1.038-2.173-1.556-3.659-1.556s-2.72.518-3.701 1.556c-.954 1.038-1.43 2.453-1.43 4.248zm23.9 4.374c1.037 1.038 2.285 1.556 3.743 1.556s2.692-.518 3.701-1.556c1.037-1.038 1.556-2.481 1.556-4.332s-.519-3.294-1.556-4.332c-1.009-1.038-2.244-1.556-3.701-1.556s-2.706.518-3.743 1.556c-1.009 1.038-1.514 2.481-1.514 4.332s.505 3.294 1.514 4.332zm-4.038-12.197c2.075-2.075 4.668-3.112 7.781-3.112s5.691 1.038 7.739 3.112c2.075 2.075 3.112 4.697 3.112 7.865s-1.038 5.79-3.112 7.865c-2.048 2.075-4.626 3.112-7.739 3.112s-5.706-1.038-7.781-3.112c-2.048-2.075-3.07-4.697-3.07-7.865s1.023-5.79 3.07-7.865z"/><path style="fill:var(--color2,#000)" d="M91.31 25.072c1.038 1.038 2.285 1.556 3.743 1.556s2.692-.518 3.701-1.556c1.038-1.038 1.556-2.481 1.556-4.332s-.518-3.294-1.556-4.332c-1.009-1.038-2.243-1.556-3.701-1.556s-2.705.518-3.743 1.556c-1.009 1.038-1.514 2.481-1.514 4.332s.505 3.294 1.514 4.332zm-4.038-12.197c2.075-2.075 4.668-3.112 7.781-3.112s5.691 1.038 7.739 3.112c2.075 2.075 3.112 4.697 3.112 7.865s-1.038 5.79-3.112 7.865c-2.047 2.075-4.626 3.112-7.739 3.112s-5.705-1.038-7.781-3.112c-2.047-2.075-3.07-4.697-3.07-7.865s1.024-5.79 3.07-7.865z"/></symbol><symbol id="icon-play" viewBox="0 0 30 32"><path fill="#fff" style="fill:var(--color1,#fff)" d="M29.538 16 1.846 31.988V.013l27.692 15.988z"/></symbol><symbol id="icon-plane" viewBox="0 0 35 32"><path fill="#d5d6db" style="fill:var(--color1,#d5d6db)" d="M19.984 18.046a2.47 2.47 0 0 0-.817.35l.009-.006c-.652.416-1.032 1.009-.848 1.326s.863.235 1.515-.18c.258-.162.478-.359.659-.587l.004-.005c.085-.113.1-.253.039-.358l-.239-.411c-.061-.105-.187-.155-.322-.128zm-1.639-5.609a1.81 1.81 0 0 0-.586.249c-.473.302-.749.732-.615.961s.625.17 1.099-.131a1.92 1.92 0 0 0 .478-.426l.003-.004c.062-.082.073-.183.028-.259l-.174-.298c-.044-.076-.136-.113-.233-.093z"/><path fill="#029bc5" style="fill:var(--color2,#029bc5)" d="m15.683 12.672-.02-.001a.218.218 0 0 0-.118.035l.001-.001-1.111.708c-.093.059-.13.173-.083.254a.152.152 0 0 0 .044.047l2.739 1.888 3.706-2.362-5.157-.569z"/><path fill="#e1e6e9" style="fill:var(--color3,#e1e6e9)" d="m27.397 12.405-10.085 6.348-5.966 2.374-3.043.605-.335-.569 16.809-10.379a3.743 3.743 0 0 1 1.618-.553 2.977 2.977 0 0 1 .737.026l-.017-.002c.207.031.402.092.582.179.2.1.581.111.705.309 0 0 .292.909-1.005 1.66z"/><path fill="#029bc5" style="fill:var(--color2,#029bc5)" d="m17.447 17.914-4.363 6.955c-.054.098-.022.207.072.244a.21.21 0 0 0 .188-.024l1.11-.704c.217-.139.4-.307.552-.501l.004-.005 8.461-9.947-6.024 3.982zm-11.009-.233a.273.273 0 0 0-.233.035l-.918.585c-.125.08-.175.233-.111.342a.187.187 0 0 0 .047.054l2.572 2.06 2.704-1.689-4.061-1.386zm2.219 3.447-1.384 1.939c-.02.028-.016.063.011.078a.063.063 0 0 0 .066-.005l.858-.544c.007-.004.013-.01.018-.015l2.023-2.459-1.59 1.007zM26.95 10.34a2.974 2.974 0 0 0-.753-.024l.012-.001a2.52 2.52 0 0 0-.455 1.118c-.004.078.059.134.141.126a.168.168 0 0 0 .074-.026h-.001l1.581-1.007a2.014 2.014 0 0 0-.588-.185l-.011-.001z"/><path fill="#d5d6db" style="fill:var(--color1,#d5d6db)" d="m23.505 12.191 1.032-.652.961 1.635-1.032.652-.961-1.635z"/><path fill="#3a556a" style="fill:var(--color4,#3a556a)" d="M22.855 12.838c-.124.079-.174.23-.111.338l.102.175c.067.105.221.124.343.041.116-.079.163-.221.107-.327l-.102-.175c-.063-.108-.215-.132-.339-.053zm-.927.576c-.124.079-.174.23-.111.338l.102.175c.067.105.221.124.343.042.116-.079.163-.221.107-.327l-.102-.175c-.063-.108-.215-.132-.339-.053zm-.928.577c-.124.079-.174.23-.111.338l.102.175c.067.105.221.124.343.041.116-.079.163-.221.107-.327l-.102-.175c-.063-.108-.215-.132-.34-.053zm-.928.576c-.124.079-.174.23-.111.338l.102.175c.067.105.221.124.343.041.116-.079.163-.221.107-.326l-.102-.175c-.063-.108-.215-.132-.34-.053zm-.927.576c-.124.079-.174.23-.111.338l.102.175c.063.108.215.132.339.053s.174-.23.111-.338l-.102-.175c-.063-.108-.215-.132-.339-.053zm-.928.576c-.124.079-.174.23-.111.338l.102.175c.063.108.215.132.339.053s.174-.23.111-.338l-.102-.175c-.063-.108-.215-.132-.339-.053zm-.928.576c-.124.079-.174.23-.111.338l.102.175c.063.108.215.131.34.052s.174-.23.111-.337l-.102-.175c-.063-.108-.215-.132-.34-.053zm-.927.576c-.124.079-.174.23-.111.338l.102.175c.063.108.215.131.34.052s.174-.23.111-.337l-.102-.175c-.063-.108-.215-.132-.339-.053zm-.928.576c-.124.079-.174.23-.111.338l.102.175c.063.108.215.131.34.052s.174-.23.111-.337l-.102-.175c-.063-.108-.215-.132-.339-.053zm-.928.576c-.124.079-.174.23-.111.338l.102.175c.063.108.215.131.34.052s.174-.23.111-.337l-.102-.175c-.063-.108-.215-.132-.339-.053zm-.927.576c-.124.079-.174.23-.111.338l.102.175c.063.108.215.131.34.052s.174-.23.111-.337l-.102-.175c-.063-.108-.215-.132-.339-.053z"/></symbol><symbol id="icon-satellite" viewBox="0 0 31 32"><path fill="#407093" style="fill:var(--color1,#407093)" d="m10.755 23.157-.863-.413-5.128 7.581h5.723l.551-.359v-6.549l-.283-.26z"/><path fill="#365e7d" style="fill:var(--color2,#365e7d)" d="m9.97 22.782-1.941-.929h-.366l-5.487 8.114.326.359h2.365l5.103-7.544z"/><path fill="#4a80aa" style="fill:var(--color3,#4a80aa)" d="M12.069 29.967H4.502a.622.622 0 0 0-.623.622v.789c0 .344.279.623.622.623h7.567a.623.623 0 0 0 .623-.623v-.789a.622.622 0 0 0-.623-.622z"/><path fill="#407093" style="fill:var(--color1,#407093)" d="M4.008 31.377v-.789c0-.344.279-.622.622-.622H.622a.622.622 0 0 0-.623.622v.789c0 .344.279.623.623.623H4.63a.622.622 0 0 1-.622-.623z"/><path fill="#4a80aa" style="fill:var(--color3,#4a80aa)" d="M9.71 18.278a3.655 3.655 0 0 0 1.958 4.992l.025.009a3.57 3.57 0 0 0 1.525-.955l.002-.002v-.795l-3.51-3.249z"/><path fill="#407093" style="fill:var(--color1,#407093)" d="M9.407 19.879c0-.557.128-1.083.357-1.552l-1.122-1.039h-.455a3.562 3.562 0 0 0 3.637 5.947l-.025.008a3.569 3.569 0 0 1-2.391-3.364z"/><path fill="#ffd086" style="fill:var(--color4,#ffd086)" d="M30.085.423a1.44 1.44 0 0 0-2.042 0L26.666 1.8v.174l1.719 1.792.322.075 1.377-1.377a1.44 1.44 0 0 0 0-2.04z"/><path fill="#ffc365" style="fill:var(--color5,#ffc365)" d="M30.466 1.104a1.44 1.44 0 0 0-2.423-.681L26.666 1.8v.174l.912.95c.484-.506.927-.962 1.374-1.415l-.014.014c.463-.462 1.138-.466 1.527-.42z"/><path fill="#365e7d" style="fill:var(--color2,#365e7d)" d="m25.37 4.091-.048-.002L9.406 2.522a.484.484 0 1 1 .096-.962H9.5l15.916 1.567a.483.483 0 0 1-.042.964h-.005z"/><path fill="#407093" style="fill:var(--color1,#407093)" d="M14.01 7.071a.483.483 0 0 1-.125-.949l.003-.001 11.36-2.98a.483.483 0 0 1 .248.933l-.003.001-11.36 2.98a.472.472 0 0 1-.123.016z"/><path fill="#365e7d" style="fill:var(--color2,#365e7d)" d="M28.455 21.548a.483.483 0 0 1-.48-.436L26.418 5.186l-.001-.026a.483.483 0 0 1 .961-.07v.003l1.558 15.926.002.047a.483.483 0 0 1-.483.483z"/><path fill="#407093" style="fill:var(--color1,#407093)" d="M23.874 17.028h-.001a.483.483 0 0 1-.466-.61l-.001.003L26.43 5.017a.483.483 0 1 1 .933.251l.001-.003-3.024 11.404a.484.484 0 0 1-.466.359z"/><path fill="#ffc365" style="fill:var(--color5,#ffc365)" d="m25.283 3.184 1.381-1.381 2.041 2.041-1.381 1.381-2.041-2.041z"/><path fill="#ffa90f" style="fill:var(--color6,#ffa90f)" d="M26.331 4.227c.332-.347.85-.89 1.352-1.411L26.667 1.8l-1.381 1.381 1.045 1.046z"/><path fill="#4a80aa" style="fill:var(--color3,#4a80aa)" d="M27.634 6.012a.478.478 0 0 1-.341-.142l-2.656-2.656a.481.481 0 0 1 .342-.824c.133 0 .254.054.341.141l2.656 2.656a.482.482 0 0 1-.341.824z"/><path fill="#b5dcff" style="fill:var(--color7,#b5dcff)" d="m27.947 22.417-16.17-16.31c-2.144 4.84-2.516 10.035-.911 14.515 4.432 3.998 11.053 4.612 17.148 2.098l-.068-.304z"/><path fill="#8bcaff" style="fill:var(--color8,#8bcaff)" d="M11.863 6.194 8.158 2.457l-.371.037c-2.61 6.33-1.848 13.228 2.576 17.651.26.26.531.509.811.747l.019.016c-1.865-4.474-1.562-9.797.67-14.714z"/><path fill="#dbedff" style="fill:var(--color9,#dbedff)" d="m29.424 21.258-16.4-16.4a.79.79 0 0 0-.441.223l-.713.713a.792.792 0 0 0-.232.554l16.347 16.347a.619.619 0 0 0 .88 0l.558-.558a.619.619 0 0 0 0-.88z"/><path fill="#b5dcff" style="fill:var(--color7,#b5dcff)" d="m11.895 5.807.698-.699a.77.77 0 0 1 .455-.222h.004L9.25 1.084a.619.619 0 0 0-.88 0l-.558.558a.619.619 0 0 0 0 .88l3.855 3.856a.778.778 0 0 1 .227-.571z"/></symbol><symbol id="decore-plus" viewBox="0 0 30 32"><path fill="#ff7152" style="fill:var(--color1,#ff7152)" d="M1.387 2.431h.841v.362h-.841v.953h-.385v-.953H.161v-.362h.841v-.88h.385v.88z"/><path fill="#e5e5e5" style="fill:var(--color2,#e5e5e5)" d="M1.387 9.178h.841v.362h-.841v.953h-.385V9.54H.161v-.362h.841v-.88h.385v.88zm0 6.747h.841v.362h-.841v.953h-.385v-.953H.161v-.362h.841v-.88h.385v.88zM8.134 2.431h.841v.362h-.841v.953h-.385v-.953h-.841v-.362h.841v-.88h.385v.88zm0 6.747h.841v.362h-.841v.953h-.385V9.54h-.841v-.362h.841v-.88h.385v.88zm0 6.747h.841v.362h-.841v.953h-.385v-.953h-.841v-.362h.841v-.88h.385v.88zm0 6.747h.841v.362h-.841v.953h-.385v-.953h-.841v-.362h.841v-.88h.385v.88zm6.747-20.241h.841v.362h-.841v.953h-.385v-.953h-.841v-.362h.841v-.88h.385v.88zm0 6.747h.841v.362h-.841v.953h-.385V9.54h-.841v-.362h.841v-.88h.385v.88z"/><path fill="#6246e5" style="fill:var(--color3,#6246e5)" d="M14.881 15.925h.841v.362h-.841v.953h-.385v-.953h-.841v-.362h.841v-.88h.385v.88z"/><path fill="#e5e5e5" style="fill:var(--color2,#e5e5e5)" d="M14.881 22.672h.841v.362h-.841v.953h-.385v-.953h-.841v-.362h.841v-.88h.385v.88zm0 6.747h.841v.362h-.841v.953h-.385v-.953h-.841v-.362h.841v-.88h.385v.88zm6.747-26.988h.841v.362h-.841v.953h-.385v-.953h-.841v-.362h.841v-.88h.385v.88zm0 6.747h.841v.362h-.841v.953h-.385V9.54h-.841v-.362h.841v-.88h.385v.88zm0 6.747h.841v.362h-.841v.953h-.385v-.953h-.841v-.362h.841v-.88h.385v.88zm0 6.747h.841v.362h-.841v.953h-.385v-.953h-.841v-.362h.841v-.88h.385v.88zm0 6.747h.841v.362h-.841v.953h-.385v-.953h-.841v-.362h.841v-.88h.385v.88zm6.747-26.988h.841v.362h-.841v.953h-.385v-.953h-.841v-.362h.841v-.88h.385v.88zm0 6.747h.841v.362h-.841v.953h-.385V9.54h-.841v-.362h.841v-.88h.385v.88zm0 6.747h.841v.362h-.841v.953h-.385v-.953h-.841v-.362h.841v-.88h.385v.88zm0 6.747h.841v.362h-.841v.953h-.385v-.953h-.841v-.362h.841v-.88h.385v.88zm0 6.747h.841v.362h-.841v.953h-.385v-.953h-.841v-.362h.841v-.88h.385v.88z"/></symbol></defs></svg>