<svg aria-hidden="true" style="width:0;height:0;position:absolute;overflow:hidden" xmlns="http://www.w3.org/2000/svg"><defs><symbol id="logo-color" viewBox="0 0 106 32"><path fill="#f1a501" style="fill:var(--color1,#f1a501)" d="m68.571 26.514 8.686 2.743 7.314-7.314 9.143 6.4 9.6-1.829L99.2 13.257l-14.629 4.571-8.229-4.571-8.686 1.371.914 11.886z"/><path style="fill:var(--color2,#000)" d="M.841 22.001v-1.977l5.594-1.009v2.734c.027 1.486.407 2.608 1.136 3.365.757.729 1.753 1.093 2.986 1.093 1.206 0 2.159-.393 2.86-1.178.729-.785 1.094-1.837 1.094-3.154V1.267h5.804v20.608c0 2.747-.912 5.074-2.734 6.982s-4.15 2.86-6.982 2.86c-2.944 0-5.313-.883-7.108-2.65-1.766-1.795-2.65-4.15-2.65-7.066zm20.807 3.449c0-1.766.574-3.182 1.724-4.248s2.635-1.738 4.458-2.019l5.089-.757c1.037-.14 1.556-.631 1.556-1.472 0-.785-.309-1.43-.925-1.935-.589-.505-1.445-.757-2.566-.757-1.178 0-2.117.323-2.818.967-.673.645-1.051 1.445-1.136 2.397l-4.963-1.051c.196-1.795 1.079-3.378 2.65-4.752s3.644-2.061 6.224-2.061c3.084 0 5.355.743 6.813 2.229 1.457 1.458 2.187 3.337 2.187 5.636v10.178c0 1.234.084 2.327.252 3.28h-5.132c-.141-.617-.21-1.445-.21-2.481-1.318 2.047-3.351 3.07-6.098 3.07-2.131 0-3.856-.617-5.173-1.851-1.29-1.234-1.935-2.692-1.935-4.374zm8.285 2.061c1.317 0 2.397-.365 3.238-1.093.869-.757 1.304-1.99 1.304-3.701v-.925l-4.668.715c-1.711.252-2.566 1.122-2.566 2.608 0 .673.238 1.248.715 1.724.476.448 1.136.673 1.977.673zM61.859.636v26.706c0 1.374.056 2.621.168 3.743h-5.341c-.141-.701-.21-1.499-.21-2.397-.477.869-1.234 1.57-2.271 2.103-1.009.533-2.187.799-3.533.799-2.944 0-5.37-1.024-7.276-3.07-1.879-2.075-2.818-4.682-2.818-7.823 0-3.056.925-5.622 2.776-7.696 1.878-2.075 4.261-3.112 7.15-3.112 2.971 0 4.921.855 5.846 2.566V.637h5.51zM46.214 20.698c0 1.822.476 3.267 1.43 4.332.953 1.038 2.187 1.556 3.701 1.556 1.486 0 2.705-.533 3.659-1.598s1.43-2.51 1.43-4.332c0-1.795-.477-3.196-1.43-4.206-.954-1.038-2.173-1.556-3.659-1.556s-2.72.518-3.701 1.556c-.954 1.038-1.43 2.453-1.43 4.248zm23.9 4.374c1.037 1.038 2.285 1.556 3.743 1.556s2.692-.518 3.701-1.556c1.037-1.038 1.556-2.481 1.556-4.332s-.519-3.294-1.556-4.332c-1.009-1.038-2.244-1.556-3.701-1.556s-2.706.518-3.743 1.556c-1.009 1.038-1.514 2.481-1.514 4.332s.505 3.294 1.514 4.332zm-4.038-12.197c2.075-2.075 4.668-3.112 7.781-3.112s5.691 1.038 7.739 3.112c2.075 2.075 3.112 4.697 3.112 7.865s-1.038 5.79-3.112 7.865c-2.048 2.075-4.626 3.112-7.739 3.112s-5.706-1.038-7.781-3.112c-2.048-2.075-3.07-4.697-3.07-7.865s1.023-5.79 3.07-7.865z"/><path style="fill:var(--color2,#000)" d="M91.31 25.072c1.038 1.038 2.285 1.556 3.743 1.556s2.692-.518 3.701-1.556c1.038-1.038 1.556-2.481 1.556-4.332s-.518-3.294-1.556-4.332c-1.009-1.038-2.243-1.556-3.701-1.556s-2.705.518-3.743 1.556c-1.009 1.038-1.514 2.481-1.514 4.332s.505 3.294 1.514 4.332zm-4.038-12.197c2.075-2.075 4.668-3.112 7.781-3.112s5.691 1.038 7.739 3.112c2.075 2.075 3.112 4.697 3.112 7.865s-1.038 5.79-3.112 7.865c-2.047 2.075-4.626 3.112-7.739 3.112s-5.705-1.038-7.781-3.112c-2.047-2.075-3.07-4.697-3.07-7.865s1.024-5.79 3.07-7.865z"/></symbol></defs></svg>