<svg aria-hidden="true" style="width:0;height:0;position:absolute;overflow:hidden" xmlns="http://www.w3.org/2000/svg"><defs><symbol id="logo-color" viewBox="0 0 106 32"><path fill="#f1a501" style="fill:var(--color1,#f1a501)" d="m68.571 26.514 8.686 2.743 7.314-7.314 9.143 6.4 9.6-1.829L99.2 13.257l-14.629 4.571-8.229-4.571-8.686 1.371.914 11.886z"/><path style="fill:var(--color2,#000)" d="M.841 22.001v-1.977l5.594-1.009v2.734c.027 1.486.407 2.608 1.136 3.365.757.729 1.753 1.093 2.986 1.093 1.206 0 2.159-.393 2.86-1.178.729-.785 1.094-1.837 1.094-3.154V1.267h5.804v20.608c0 2.747-.912 5.074-2.734 6.982s-4.15 2.86-6.982 2.86c-2.944 0-5.313-.883-7.108-2.65-1.766-1.795-2.65-4.15-2.65-7.066zm20.807 3.449c0-1.766.574-3.182 1.724-4.248s2.635-1.738 4.458-2.019l5.089-.757c1.037-.14 1.556-.631 1.556-1.472 0-.785-.309-1.43-.925-1.935-.589-.505-1.445-.757-2.566-.757-1.178 0-2.117.323-2.818.967-.673.645-1.051 1.445-1.136 2.397l-4.963-1.051c.196-1.795 1.079-3.378 2.65-4.752s3.644-2.061 6.224-2.061c3.084 0 5.355.743 6.813 2.229 1.457 1.458 2.187 3.337 2.187 5.636v10.178c0 1.234.084 2.327.252 3.28h-5.132c-.141-.617-.21-1.445-.21-2.481-1.318 2.047-3.351 3.07-6.098 3.07-2.131 0-3.856-.617-5.173-1.851-1.29-1.234-1.935-2.692-1.935-4.374zm8.285 2.061c1.317 0 2.397-.365 3.238-1.093.869-.757 1.304-1.99 1.304-3.701v-.925l-4.668.715c-1.711.252-2.566 1.122-2.566 2.608 0 .673.238 1.248.715 1.724.476.448 1.136.673 1.977.673zM61.859.636v26.706c0 1.374.056 2.621.168 3.743h-5.341c-.141-.701-.21-1.499-.21-2.397-.477.869-1.234 1.57-2.271 2.103-1.009.533-2.187.799-3.533.799-2.944 0-5.37-1.024-7.276-3.07-1.879-2.075-2.818-4.682-2.818-7.823 0-3.056.925-5.622 2.776-7.696 1.878-2.075 4.261-3.112 7.15-3.112 2.971 0 4.921.855 5.846 2.566V.637h5.51zM46.214 20.698c0 1.822.476 3.267 1.43 4.332.953 1.038 2.187 1.556 3.701 1.556 1.486 0 2.705-.533 3.659-1.598s1.43-2.51 1.43-4.332c0-1.795-.477-3.196-1.43-4.206-.954-1.038-2.173-1.556-3.659-1.556s-2.72.518-3.701 1.556c-.954 1.038-1.43 2.453-1.43 4.248zm23.9 4.374c1.037 1.038 2.285 1.556 3.743 1.556s2.692-.518 3.701-1.556c1.037-1.038 1.556-2.481 1.556-4.332s-.519-3.294-1.556-4.332c-1.009-1.038-2.244-1.556-3.701-1.556s-2.706.518-3.743 1.556c-1.009 1.038-1.514 2.481-1.514 4.332s.505 3.294 1.514 4.332zm-4.038-12.197c2.075-2.075 4.668-3.112 7.781-3.112s5.691 1.038 7.739 3.112c2.075 2.075 3.112 4.697 3.112 7.865s-1.038 5.79-3.112 7.865c-2.048 2.075-4.626 3.112-7.739 3.112s-5.706-1.038-7.781-3.112c-2.048-2.075-3.07-4.697-3.07-7.865s1.023-5.79 3.07-7.865z"/><path style="fill:var(--color2,#000)" d="M91.31 25.072c1.038 1.038 2.285 1.556 3.743 1.556s2.692-.518 3.701-1.556c1.038-1.038 1.556-2.481 1.556-4.332s-.518-3.294-1.556-4.332c-1.009-1.038-2.243-1.556-3.701-1.556s-2.705.518-3.743 1.556c-1.009 1.038-1.514 2.481-1.514 4.332s.505 3.294 1.514 4.332zm-4.038-12.197c2.075-2.075 4.668-3.112 7.781-3.112s5.691 1.038 7.739 3.112c2.075 2.075 3.112 4.697 3.112 7.865s-1.038 5.79-3.112 7.865c-2.047 2.075-4.626 3.112-7.739 3.112s-5.705-1.038-7.781-3.112c-2.047-2.075-3.07-4.697-3.07-7.865s1.024-5.79 3.07-7.865z"/></symbol><symbol id="logo" viewBox="0 0 140 32"><path fill="#181e4b" style="fill:var(--color1,#181e4b)" d="M13.097 23.025c0 2.402-1.201 4.141-3.727 4.141s-3.686-1.739-3.727-4.141H.881c0 5.218 3.52 8.324 8.489 8.324s8.489-3.106 8.489-8.324V2.278h-4.762v20.747zm10.869-3.479c0 7.04 4.762 11.885 10.684 11.885 3.81 0 6.543-1.822 7.992-3.768v3.396h4.762V8.241h-4.762v3.313c-1.408-1.864-4.058-3.686-7.91-3.686-6.005 0-10.767 4.638-10.767 11.678zm18.677.083c0 4.928-3.354 7.703-6.916 7.703-3.52 0-6.916-2.857-6.916-7.785s3.396-7.578 6.916-7.578c3.561 0 6.916 2.775 6.916 7.661zm9.389-.083c0 7.04 4.762 11.885 10.767 11.885 3.727 0 6.46-1.739 7.91-3.81v3.437h4.762V.413h-4.762v11.016c-1.739-2.153-4.887-3.561-7.868-3.561-6.046 0-10.808 4.638-10.808 11.678zm18.677.083c0 4.928-3.354 7.703-6.916 7.703-3.52 0-6.916-2.857-6.916-7.785s3.396-7.578 6.916-7.578c3.561 0 6.916 2.775 6.916 7.661zm32.705 0c0-7.164-5.135-11.761-11.637-11.761S80.14 12.465 80.14 19.629s4.928 11.802 11.43 11.802c6.543 0 11.844-4.638 11.844-11.802zm-18.47 0c0-5.176 3.189-7.661 6.75-7.661 3.52 0 6.874 2.485 6.874 7.661s-3.479 7.703-6.999 7.703c-3.561 0-6.626-2.526-6.626-7.703zm44.877 0c0-7.164-5.135-11.761-11.637-11.761s-11.637 4.597-11.637 11.761 4.928 11.802 11.43 11.802c6.543 0 11.844-4.638 11.844-11.802zm-18.469 0c0-5.176 3.189-7.661 6.75-7.661 3.52 0 6.874 2.485 6.874 7.661s-3.479 7.703-6.999 7.703c-3.561 0-6.626-2.526-6.626-7.703zm28.023 8.697c0-1.698-1.325-3.023-2.982-3.023h-.036a2.987 2.987 0 0 0-2.987 2.987v.038-.002.036a2.987 2.987 0 0 0 2.987 2.987h.038-.002c1.656 0 2.982-1.325 2.982-3.023z"/></symbol><symbol id="icon-play" viewBox="0 0 30 32"><path fill="#fff" style="fill:var(--color1,#fff)" d="M29.538 16 1.846 31.988V.013l27.692 15.988z"/></symbol><symbol id="icon-plane" viewBox="0 0 35 32"><path fill="#d5d6db" style="fill:var(--color1,#d5d6db)" d="M19.984 18.046a2.47 2.47 0 0 0-.817.35l.009-.006c-.652.416-1.032 1.009-.848 1.326s.863.235 1.515-.18c.258-.162.478-.359.659-.587l.004-.005c.085-.113.1-.253.039-.358l-.239-.411c-.061-.105-.187-.155-.322-.128zm-1.639-5.609a1.81 1.81 0 0 0-.586.249c-.473.302-.749.732-.615.961s.625.17 1.099-.131a1.92 1.92 0 0 0 .478-.426l.003-.004c.062-.082.073-.183.028-.259l-.174-.298c-.044-.076-.136-.113-.233-.093z"/><path fill="#029bc5" style="fill:var(--color2,#029bc5)" d="m15.683 12.672-.02-.001a.218.218 0 0 0-.118.035l.001-.001-1.111.708c-.093.059-.13.173-.083.254a.152.152 0 0 0 .044.047l2.739 1.888 3.706-2.362-5.157-.569z"/><path fill="#e1e6e9" style="fill:var(--color3,#e1e6e9)" d="m27.397 12.405-10.085 6.348-5.966 2.374-3.043.605-.335-.569 16.809-10.379a3.743 3.743 0 0 1 1.618-.553 2.977 2.977 0 0 1 .737.026l-.017-.002c.207.031.402.092.582.179.2.1.581.111.705.309 0 0 .292.909-1.005 1.66z"/><path fill="#029bc5" style="fill:var(--color2,#029bc5)" d="m17.447 17.914-4.363 6.955c-.054.098-.022.207.072.244a.21.21 0 0 0 .188-.024l1.11-.704c.217-.139.4-.307.552-.501l.004-.005 8.461-9.947-6.024 3.982zm-11.009-.233a.273.273 0 0 0-.233.035l-.918.585c-.125.08-.175.233-.111.342a.187.187 0 0 0 .047.054l2.572 2.06 2.704-1.689-4.061-1.386zm2.219 3.447-1.384 1.939c-.02.028-.016.063.011.078a.063.063 0 0 0 .066-.005l.858-.544c.007-.004.013-.01.018-.015l2.023-2.459-1.59 1.007zM26.95 10.34a2.974 2.974 0 0 0-.753-.024l.012-.001a2.52 2.52 0 0 0-.455 1.118c-.004.078.059.134.141.126a.168.168 0 0 0 .074-.026h-.001l1.581-1.007a2.014 2.014 0 0 0-.588-.185l-.011-.001z"/><path fill="#d5d6db" style="fill:var(--color1,#d5d6db)" d="m23.505 12.191 1.032-.652.961 1.635-1.032.652-.961-1.635z"/><path fill="#3a556a" style="fill:var(--color4,#3a556a)" d="M22.855 12.838c-.124.079-.174.23-.111.338l.102.175c.067.105.221.124.343.041.116-.079.163-.221.107-.327l-.102-.175c-.063-.108-.215-.132-.339-.053zm-.927.576c-.124.079-.174.23-.111.338l.102.175c.067.105.221.124.343.042.116-.079.163-.221.107-.327l-.102-.175c-.063-.108-.215-.132-.339-.053zm-.928.577c-.124.079-.174.23-.111.338l.102.175c.067.105.221.124.343.041.116-.079.163-.221.107-.327l-.102-.175c-.063-.108-.215-.132-.34-.053zm-.928.576c-.124.079-.174.23-.111.338l.102.175c.067.105.221.124.343.041.116-.079.163-.221.107-.326l-.102-.175c-.063-.108-.215-.132-.34-.053zm-.927.576c-.124.079-.174.23-.111.338l.102.175c.063.108.215.132.339.053s.174-.23.111-.338l-.102-.175c-.063-.108-.215-.132-.339-.053zm-.928.576c-.124.079-.174.23-.111.338l.102.175c.063.108.215.132.339.053s.174-.23.111-.338l-.102-.175c-.063-.108-.215-.132-.339-.053zm-.928.576c-.124.079-.174.23-.111.338l.102.175c.063.108.215.131.34.052s.174-.23.111-.337l-.102-.175c-.063-.108-.215-.132-.34-.053zm-.927.576c-.124.079-.174.23-.111.338l.102.175c.063.108.215.131.34.052s.174-.23.111-.337l-.102-.175c-.063-.108-.215-.132-.339-.053zm-.928.576c-.124.079-.174.23-.111.338l.102.175c.063.108.215.131.34.052s.174-.23.111-.337l-.102-.175c-.063-.108-.215-.132-.339-.053zm-.928.576c-.124.079-.174.23-.111.338l.102.175c.063.108.215.131.34.052s.174-.23.111-.337l-.102-.175c-.063-.108-.215-.132-.339-.053zm-.927.576c-.124.079-.174.23-.111.338l.102.175c.063.108.215.131.34.052s.174-.23.111-.337l-.102-.175c-.063-.108-.215-.132-.339-.053z"/></symbol><symbol id="icon-satellite" viewBox="0 0 31 32"><path fill="#407093" style="fill:var(--color1,#407093)" d="m10.755 23.157-.863-.413-5.128 7.581h5.723l.551-.359v-6.549l-.283-.26z"/><path fill="#365e7d" style="fill:var(--color2,#365e7d)" d="m9.97 22.782-1.941-.929h-.366l-5.487 8.114.326.359h2.365l5.103-7.544z"/><path fill="#4a80aa" style="fill:var(--color3,#4a80aa)" d="M12.069 29.967H4.502a.622.622 0 0 0-.623.622v.789c0 .344.279.623.622.623h7.567a.623.623 0 0 0 .623-.623v-.789a.622.622 0 0 0-.623-.622z"/><path fill="#407093" style="fill:var(--color1,#407093)" d="M4.008 31.377v-.789c0-.344.279-.622.622-.622H.622a.622.622 0 0 0-.623.622v.789c0 .344.279.623.623.623H4.63a.622.622 0 0 1-.622-.623z"/><path fill="#4a80aa" style="fill:var(--color3,#4a80aa)" d="M9.71 18.278a3.655 3.655 0 0 0 1.958 4.992l.025.009a3.57 3.57 0 0 0 1.525-.955l.002-.002v-.795l-3.51-3.249z"/><path fill="#407093" style="fill:var(--color1,#407093)" d="M9.407 19.879c0-.557.128-1.083.357-1.552l-1.122-1.039h-.455a3.562 3.562 0 0 0 3.637 5.947l-.025.008a3.569 3.569 0 0 1-2.391-3.364z"/><path fill="#ffd086" style="fill:var(--color4,#ffd086)" d="M30.085.423a1.44 1.44 0 0 0-2.042 0L26.666 1.8v.174l1.719 1.792.322.075 1.377-1.377a1.44 1.44 0 0 0 0-2.04z"/><path fill="#ffc365" style="fill:var(--color5,#ffc365)" d="M30.466 1.104a1.44 1.44 0 0 0-2.423-.681L26.666 1.8v.174l.912.95c.484-.506.927-.962 1.374-1.415l-.014.014c.463-.462 1.138-.466 1.527-.42z"/><path fill="#365e7d" style="fill:var(--color2,#365e7d)" d="m25.37 4.091-.048-.002L9.406 2.522a.484.484 0 1 1 .096-.962H9.5l15.916 1.567a.483.483 0 0 1-.042.964h-.005z"/><path fill="#407093" style="fill:var(--color1,#407093)" d="M14.01 7.071a.483.483 0 0 1-.125-.949l.003-.001 11.36-2.98a.483.483 0 0 1 .248.933l-.003.001-11.36 2.98a.472.472 0 0 1-.123.016z"/><path fill="#365e7d" style="fill:var(--color2,#365e7d)" d="M28.455 21.548a.483.483 0 0 1-.48-.436L26.418 5.186l-.001-.026a.483.483 0 0 1 .961-.07v.003l1.558 15.926.002.047a.483.483 0 0 1-.483.483z"/><path fill="#407093" style="fill:var(--color1,#407093)" d="M23.874 17.028h-.001a.483.483 0 0 1-.466-.61l-.001.003L26.43 5.017a.483.483 0 1 1 .933.251l.001-.003-3.024 11.404a.484.484 0 0 1-.466.359z"/><path fill="#ffc365" style="fill:var(--color5,#ffc365)" d="m25.283 3.184 1.381-1.381 2.041 2.041-1.381 1.381-2.041-2.041z"/><path fill="#ffa90f" style="fill:var(--color6,#ffa90f)" d="M26.331 4.227c.332-.347.85-.89 1.352-1.411L26.667 1.8l-1.381 1.381 1.045 1.046z"/><path fill="#4a80aa" style="fill:var(--color3,#4a80aa)" d="M27.634 6.012a.478.478 0 0 1-.341-.142l-2.656-2.656a.481.481 0 0 1 .342-.824c.133 0 .254.054.341.141l2.656 2.656a.482.482 0 0 1-.341.824z"/><path fill="#b5dcff" style="fill:var(--color7,#b5dcff)" d="m27.947 22.417-16.17-16.31c-2.144 4.84-2.516 10.035-.911 14.515 4.432 3.998 11.053 4.612 17.148 2.098l-.068-.304z"/><path fill="#8bcaff" style="fill:var(--color8,#8bcaff)" d="M11.863 6.194 8.158 2.457l-.371.037c-2.61 6.33-1.848 13.228 2.576 17.651.26.26.531.509.811.747l.019.016c-1.865-4.474-1.562-9.797.67-14.714z"/><path fill="#dbedff" style="fill:var(--color9,#dbedff)" d="m29.424 21.258-16.4-16.4a.79.79 0 0 0-.441.223l-.713.713a.792.792 0 0 0-.232.554l16.347 16.347a.619.619 0 0 0 .88 0l.558-.558a.619.619 0 0 0 0-.88z"/><path fill="#b5dcff" style="fill:var(--color7,#b5dcff)" d="m11.895 5.807.698-.699a.77.77 0 0 1 .455-.222h.004L9.25 1.084a.619.619 0 0 0-.88 0l-.558.558a.619.619 0 0 0 0 .88l3.855 3.856a.778.778 0 0 1 .227-.571z"/></symbol><symbol id="decore-plus" viewBox="0 0 30 32"><path fill="#ff7152" style="fill:var(--color1,#ff7152)" d="M1.387 2.431h.841v.362h-.841v.953h-.385v-.953H.161v-.362h.841v-.88h.385v.88z"/><path fill="#e5e5e5" style="fill:var(--color2,#e5e5e5)" d="M1.387 9.178h.841v.362h-.841v.953h-.385V9.54H.161v-.362h.841v-.88h.385v.88zm0 6.747h.841v.362h-.841v.953h-.385v-.953H.161v-.362h.841v-.88h.385v.88zM8.134 2.431h.841v.362h-.841v.953h-.385v-.953h-.841v-.362h.841v-.88h.385v.88zm0 6.747h.841v.362h-.841v.953h-.385V9.54h-.841v-.362h.841v-.88h.385v.88zm0 6.747h.841v.362h-.841v.953h-.385v-.953h-.841v-.362h.841v-.88h.385v.88zm0 6.747h.841v.362h-.841v.953h-.385v-.953h-.841v-.362h.841v-.88h.385v.88zm6.747-20.241h.841v.362h-.841v.953h-.385v-.953h-.841v-.362h.841v-.88h.385v.88zm0 6.747h.841v.362h-.841v.953h-.385V9.54h-.841v-.362h.841v-.88h.385v.88z"/><path fill="#6246e5" style="fill:var(--color3,#6246e5)" d="M14.881 15.925h.841v.362h-.841v.953h-.385v-.953h-.841v-.362h.841v-.88h.385v.88z"/><path fill="#e5e5e5" style="fill:var(--color2,#e5e5e5)" d="M14.881 22.672h.841v.362h-.841v.953h-.385v-.953h-.841v-.362h.841v-.88h.385v.88zm0 6.747h.841v.362h-.841v.953h-.385v-.953h-.841v-.362h.841v-.88h.385v.88zm6.747-26.988h.841v.362h-.841v.953h-.385v-.953h-.841v-.362h.841v-.88h.385v.88zm0 6.747h.841v.362h-.841v.953h-.385V9.54h-.841v-.362h.841v-.88h.385v.88zm0 6.747h.841v.362h-.841v.953h-.385v-.953h-.841v-.362h.841v-.88h.385v.88zm0 6.747h.841v.362h-.841v.953h-.385v-.953h-.841v-.362h.841v-.88h.385v.88zm0 6.747h.841v.362h-.841v.953h-.385v-.953h-.841v-.362h.841v-.88h.385v.88zm6.747-26.988h.841v.362h-.841v.953h-.385v-.953h-.841v-.362h.841v-.88h.385v.88zm0 6.747h.841v.362h-.841v.953h-.385V9.54h-.841v-.362h.841v-.88h.385v.88zm0 6.747h.841v.362h-.841v.953h-.385v-.953h-.841v-.362h.841v-.88h.385v.88zm0 6.747h.841v.362h-.841v.953h-.385v-.953h-.841v-.362h.841v-.88h.385v.88zm0 6.747h.841v.362h-.841v.953h-.385v-.953h-.841v-.362h.841v-.88h.385v.88z"/></symbol><symbol id="navigation" viewBox="0 0 32 32"><path d="m28.909 4.416-11 24a1.001 1.001 0 0 1-1.904-.328v-.004l-.931-11.157-11.157-.93a1 1 0 0 1-.341-1.903l.006-.003 24-11a1 1 0 0 1 1.324 1.331l.003-.006z"/></symbol><symbol id="steps-1" viewBox="0 0 31 32"><path fill="#f0bb1f" style="fill:var(--color1,#f0bb1f)" d="M8.667 0h14a8.667 8.667 0 0 1 8.667 8.667v14.667a8.667 8.667 0 0 1-8.667 8.667h-14A8.667 8.667 0 0 1 0 23.334V8.667A8.667 8.667 0 0 1 8.667 0z"/><path fill="#fff" style="fill:var(--color2,#fff)" d="M9.03 11.651a.365.365 0 0 1-.363-.36V9.03c0-.201.162-.363.363-.363h2.261c.198 0 .36.162.36.363v.787h8.699V9.03c0-.198.161-.36.359-.363h2.261c.2.002.361.163.363.363v2.261c0 .198-.162.36-.363.36h-.787v8.699h.787c.198 0 .36.161.363.359v2.261a.366.366 0 0 1-.363.363h-2.261a.361.361 0 0 1-.36-.361v-.789H11.65v.787c0 .198-.161.36-.359.363H9.03a.366.366 0 0 1-.363-.363v-2.261c0-.198.162-.36.363-.36h.787V11.65H9.03zm13.585-.72V9.385h-1.547v1.547h1.547zm-1.547 11.684h1.547v-1.547h-1.547v1.547zm-9.418-1.906v.755h8.7v-.755a.36.36 0 0 1 .359-.36h.755V11.65h-.755a.36.36 0 0 1-.36-.359v-.755H11.65v.755a.36.36 0 0 1-.359.36h-.755v8.699h.755a.36.36 0 0 1 .36.359zm-2.265.36v1.546h1.547v-1.547H9.385zm1.547-10.138V9.385H9.385v1.547h1.547z"/></symbol><symbol id="steps-2" viewBox="0 0 31 32"><path fill="#f15a2b" style="fill:var(--color3,#f15a2b)" d="M8.667 0h14a8.667 8.667 0 0 1 8.667 8.667v14.667a8.667 8.667 0 0 1-8.667 8.667h-14A8.667 8.667 0 0 1 0 23.334V8.667A8.667 8.667 0 0 1 8.667 0z"/><path fill="#fff" style="fill:var(--color2,#fff)" d="M21.879 21.286c-.3.006-.595-.08-.845-.247a1.137 1.137 0 0 0-1.255.003l.004-.003c-.239.154-.531.246-.845.246s-.606-.092-.851-.25l.006.004a1.142 1.142 0 0 0-1.256.003l.004-.003c-.239.154-.531.246-.845.246s-.606-.092-.851-.25l.006.004a1.145 1.145 0 0 0-1.255.003l.004-.003a1.448 1.448 0 0 1-.768.244h-.002l-.015-.432c.203-.005.4-.069.567-.185a1.57 1.57 0 0 1 1.695.004l-.006-.004a1.142 1.142 0 0 0 1.256-.003l-.004.003c.239-.154.531-.246.845-.246s.606.092.851.25l-.006-.004a1.142 1.142 0 0 0 1.256-.003l-.004.003c.239-.154.531-.246.845-.246s.606.092.851.25l-.006-.004a1.146 1.146 0 0 0 1.258-.002l-.004.003a1.46 1.46 0 0 1 .815-.246h.03-.002v.433h-.028c-.224 0-.431.07-.601.189l.003-.002a1.48 1.48 0 0 1-.847.246zm-11.76-.001c-.3.007-.595-.079-.844-.246a1.04 1.04 0 0 0-.598-.187h-.03.001v-.432c.3-.007.595.08.845.247.183.127.403.192.625.186.223.006.443-.06.626-.187.249-.167.544-.252.843-.246.292-.007.58.075.825.235l-.218.373a1.027 1.027 0 0 0-.577-.176h-.031.002-.028c-.223 0-.429.07-.598.189l.003-.002a1.47 1.47 0 0 1-.846.247zm11.761-1.513a1.464 1.464 0 0 1-.846-.247 1.14 1.14 0 0 0-1.256.003l.004-.003a1.57 1.57 0 0 1-1.695-.004l.006.004a1.145 1.145 0 0 0-1.255.003l.004-.003c-.239.154-.531.246-.845.246s-.606-.092-.851-.25l.006.004a1.145 1.145 0 0 0-1.255.003l.004-.003a1.466 1.466 0 0 1-.845.247c-.3.007-.595-.08-.845-.247a1.033 1.033 0 0 0-.596-.186h-.031.002-.028c-.223 0-.43.07-.6.189l.003-.002a1.461 1.461 0 0 1-.843.246c-.3.007-.595-.08-.845-.247a1.033 1.033 0 0 0-.596-.186h-.032.002v-.432c.3-.007.595.08.845.246.183.127.403.192.625.187h.028c.223 0 .431-.07.6-.189l-.003.002c.229-.155.511-.247.815-.247h.03-.002c.3-.006.595.08.845.247.183.127.402.192.625.187.223.005.442-.06.625-.187.239-.154.531-.246.845-.246s.606.092.851.25l-.006-.004a1.145 1.145 0 0 0 1.255-.003l-.004.003c.239-.154.531-.246.845-.246s.606.092.851.25l-.006-.004a1.145 1.145 0 0 0 1.255-.003l-.004.003a1.573 1.573 0 0 1 1.697.004l-.006-.004c.177.117.393.186.626.186s.449-.069.63-.189l-.004.003c.23-.155.512-.247.817-.247h.03-.002v.433h-.03c-.223 0-.43.07-.6.189l.003-.002c-.25.167-.545.252-.845.246zm-.001-1.513c-.3.007-.595-.08-.845-.247a1.039 1.039 0 0 0-.597-.186h-.03.001l-.034-.001a.992.992 0 0 0-.445.105l.006-.003-.191-.389c.207-.101.434-.151.664-.145.3-.007.595.08.845.247a1.146 1.146 0 0 0 1.258-.002l-.004.003c.229-.155.512-.247.816-.247h.029-.001v.433h-.029c-.223 0-.43.07-.6.189l.003-.002a1.463 1.463 0 0 1-.816.246h-.033.002zm-2.943 0c-.3.007-.593-.08-.843-.246a1.142 1.142 0 0 0-1.256.003l.004-.003c-.239.154-.531.246-.845.246s-.606-.092-.851-.25l.006.004a1.142 1.142 0 0 0-1.256.003l.004-.003a1.462 1.462 0 0 1-.844.246c-.3.007-.595-.08-.845-.247a1.039 1.039 0 0 0-.597-.186h-.03.001-.027c-.223 0-.43.07-.599.189l.003-.002c-.25.167-.545.252-.845.246-.3.007-.595-.08-.844-.247a1.039 1.039 0 0 0-.597-.186h-.031.002v-.432c.3-.007.595.079.845.246.183.127.403.192.625.187.223.005.443-.06.626-.187.249-.167.544-.253.843-.247.3-.006.595.08.845.247.183.127.402.192.625.187.223.005.442-.06.626-.187.239-.154.531-.246.845-.246s.606.092.851.25l-.006-.004a1.137 1.137 0 0 0 1.255-.003l-.004.003c.239-.155.531-.246.845-.246s.606.092.851.25l-.006-.004a1.087 1.087 0 0 0 .699.183h-.004l.058.429a1.15 1.15 0 0 1-.131.007zm2.944-1.514a1.47 1.47 0 0 1-.846-.246 1.14 1.14 0 0 0-1.256.003l.004-.003a1.57 1.57 0 0 1-1.695-.004l.006.004a1.145 1.145 0 0 0-1.255.003l.004-.003c-.239.154-.531.246-.845.246s-.606-.092-.851-.25l.006.004a1.145 1.145 0 0 0-1.255.003l.004-.003a1.466 1.466 0 0 1-.845.247c-.3.006-.595-.08-.845-.247a1.04 1.04 0 0 0-.597-.187h-.03.001-.028c-.223 0-.43.07-.6.189l.003-.002a1.47 1.47 0 0 1-.843.247c-.3.006-.595-.08-.845-.247a1.04 1.04 0 0 0-.597-.187h-.031.002v-.432c.3-.007.595.08.845.247.183.127.403.192.625.186.223.006.442-.06.625-.187.229-.154.51-.246.814-.246h.031-.002c.3-.007.595.08.845.247.183.127.402.192.625.186.223.006.442-.06.625-.187.239-.154.531-.246.845-.246s.606.092.851.25l-.006-.004a1.145 1.145 0 0 0 1.255-.003l-.004.003c.239-.154.531-.246.845-.246s.606.092.851.25l-.006-.004a1.137 1.137 0 0 0 1.255-.003l-.004.003a1.573 1.573 0 0 1 1.697.004l-.006-.004c.177.117.393.186.626.186s.449-.069.63-.189l-.004.003c.25-.167.545-.252.845-.246v.433h-.029c-.224 0-.431.07-.601.189l.003-.002c-.25.166-.545.251-.845.245z"/><path fill="#fff" style="fill:var(--color2,#fff)" d="m18.799 16.561-.408-.143a2.366 2.366 0 0 0-.133-1.87l.006.013-1.485-2.909a.218.218 0 0 1 .135-.307h.002l2.96-.789a.38.38 0 1 0-.187-.733l.003-.001-3.583.856a.515.515 0 0 0-.332.745l-.001-.003 1.064 1.976a.217.217 0 0 1-.085.291l-.001.001-1.373.757-.209-.379 1.185-.653-.961-1.788a.944.944 0 0 1 .608-1.366l.006-.001 3.58-.856a.81.81 0 0 1 .404 1.571l-.006.001-2.702.72 1.364 2.67c.193.37.306.809.306 1.274 0 .33-.057.647-.162.941l.006-.02zm-4.384-2.072-2.627 1.447.209.379 2.627-1.447-.209-.379z"/><path fill="#fff" style="fill:var(--color2,#fff)" d="M20.757 15.123a1.622 1.622 0 1 1 0-3.244 1.622 1.622 0 1 1 0 3.244zm0-2.81h-.028a1.189 1.189 0 1 0 0 2.378h.03-.001a1.19 1.19 0 0 0 .001-2.378h-.001z"/></symbol><symbol id="steps-3" viewBox="0 0 31 32"><path fill="#006380" style="fill:var(--color4,#006380)" d="M8.667 0h14a8.667 8.667 0 0 1 8.667 8.667v14.667a8.667 8.667 0 0 1-8.667 8.667h-14A8.667 8.667 0 0 1 0 23.334V8.667A8.667 8.667 0 0 1 8.667 0z"/><path fill="#fff" style="fill:var(--color2,#fff)" d="M11 17.417a1 1 0 0 0 0 2 1 1 0 0 0 0-2zm0 1.5a.5.5 0 0 1 0-1 .5.5 0 0 1 0 1zm10-1.5a1 1 0 0 0 0 2 1 1 0 0 0 0-2zm0 1.5a.5.5 0 0 1 0-1 .5.5 0 0 1 0 1zm-7.25-.25h4.5v.5h-4.5v-.5zm0-1h4.5v.5h-4.5v-.5zm1.5-3.75h1.5v.5h-1.5v-.5z"/><path fill="#fff" style="fill:var(--color2,#fff)" d="M23.5 16.167v-.5a.752.752 0 0 0-.75-.75h-.99l-.517-1.815-.155-.617a.752.752 0 0 0-.727-.567h-2.11v-1a.501.501 0 0 0-.5-.5h-3.5a.501.501 0 0 0-.5.5v1h-2.11a.75.75 0 0 0-.726.562l-.001.005-.153.615-.52 1.817h-.99a.752.752 0 0 0-.75.75v.5c.001.266.14.499.35.631l.003.002a1.24 1.24 0 0 0-.353.867v3c.001.22.097.418.249.554l.001.001v.945a.752.752 0 0 0 .75.75h2a.752.752 0 0 0 .75-.75v-.75h7.5v.75a.752.752 0 0 0 .75.75h2a.752.752 0 0 0 .75-.75v-.945a.746.746 0 0 0 .25-.555v-3c0-.324-.127-.635-.353-.867a.75.75 0 0 0 .353-.633zm-9.25-5.25h3.5v1h-3.5v-1zm-2.853 1.69a.25.25 0 0 1 .243-.19h8.72a.25.25 0 0 1 .242.188v.002l.077.31h-9.36l.077-.31zm-.21.81h9.626l.855 3h-7.191a1.499 1.499 0 0 0-2.953-.009l-.001.009h-1.19l.855-3zm2.778 3h-1.931c.112-.436.502-.753.965-.753s.853.317.964.746l.002.007zM9 15.667a.25.25 0 0 1 .25-.25h.847l-.285 1h-.563a.25.25 0 0 1-.25-.25v-.5zm2.75 6.5a.25.25 0 0 1-.25.25h-2a.25.25 0 0 1-.25-.25v-.75h2.5v.75zm11 0a.25.25 0 0 1-.25.25h-2a.25.25 0 0 1-.25-.25v-.75h2.5v.75zm.25-1.5a.25.25 0 0 1-.25.25H9.25a.25.25 0 0 1-.25-.25v-.25h14v.25zm0-.75H9v-2.25a.752.752 0 0 1 .75-.75h12.5a.752.752 0 0 1 .75.75v2.25zm0-3.75a.25.25 0 0 1-.25.25h-.563l-.285-1h.847a.25.25 0 0 1 .25.25v.5z"/></symbol><symbol id="step-btn-leaf" viewBox="0 0 32 32"><path fill="#84829a" style="fill:var(--color1,#84829a)" d="M31.211.343C30.365.101 9.744-1.952 2.5 7.833-.709 12.167-.757 18.11 2.34 25.492c-.71 1.422-1.4 3.13-1.962 4.896l-.072.263a1.042 1.042 0 1 0 1.988.624l.002-.007C7.816 13.417 25.759 4.783 31.258 2.603c.537-.215 1.253-1.879-.048-2.258z"/><path fill="#84829a" style="fill:var(--color1,#84829a)" d="M5.65 27.726c2.985 1.253 5.973 1.895 8.747 1.895 2.496 0 4.823-.514 6.83-1.554 4.034-2.094 6.503-6.098 7.131-11.584.64-5.589 1.44-9.09 2.107-11.232-5.931 2.736-18.651 9.829-24.816 22.475z"/></symbol><symbol id="step-btn-map" viewBox="0 0 32 32"><path fill="#84829a" style="fill:var(--color1,#84829a)" d="M30.857 0c-.186 0-.361.045-.516.124l.006-.003-8.661 4.331L11.894.098c-.016-.007-.034-.007-.055-.014a1.093 1.093 0 0 0-.269-.068l-.006-.001a1.478 1.478 0 0 0-.283 0h.006a1.177 1.177 0 0 0-.282.071l.008-.003c-.016.007-.034.007-.05.014L.677 4.668a1.145 1.145 0 0 0-.679 1.044v25.143a1.143 1.143 0 0 0 1.614 1.042l-.007.003 9.822-4.366 9.822 4.366c.016.007.034 0 .053.009a.996.996 0 0 0 .864-.018c.018-.007.039 0 .057-.011l9.143-4.571c.378-.192.633-.577.633-1.023V1.142c0-.631-.512-1.143-1.143-1.143zM10.286 25.543l-8 3.554V6.457l8-3.554v22.64zm10.285 3.554-8-3.554V2.903l8 3.554v22.64zm9.143-3.518-6.857 3.429V6.421l6.857-3.429v22.587z"/></symbol><symbol id="step-btn-send" viewBox="0 0 32 32"><path fill="#84829a" style="fill:var(--color1,#84829a)" d="M28.213 2.839 13.774 17.333a3.036 3.036 0 0 0-.5-.233l-.022-.007-9.531-3.225a1.334 1.334 0 0 1-.009-2.586l.009-.002 23.653-8.411c.143-.051.308-.081.479-.082h.02c.121 0 .238.019.348.055l-.008-.002zm.921 1.787-8.414 23.68a1.335 1.335 0 0 1-1.264.909l-.072-.002h.003l-.062.001a1.336 1.336 0 0 1-1.271-.925l-.003-.009-3.173-9.534a3.16 3.16 0 0 0-.248-.536l.008.015L29.159 3.786c.08.274.071.571-.027.839z"/></symbol><symbol id="steps-icon-bild" viewBox="0 0 32 32"><path fill="#84829a" style="fill:var(--color1,#84829a)" d="M.534 30.934h3.2v-17.6c0-.296.24-.534.532-.534h7.468V.534c0-.296.24-.534.532-.534h13.868c.294 0 .532.24.532.534v30.4h4.8l.033-.001a.534.534 0 1 1 0 1.068L31.465 32h.002H.535a.534.534 0 0 1-.001-1.066h.002zm20.266 0h2.134v-4.8a.534.534 0 0 0-.534-.534h-1.066a.534.534 0 0 0-.534.534v4.8zm-2.134-17.6v17.6h1.068v-4.8a1.6 1.6 0 0 1 1.6-1.6H22.4a1.6 1.6 0 0 1 1.6 1.6v4.8h1.6V1.066H12.8V12.8h5.334c.294 0 .532.24.532.534zM4.8 30.934h12.8V13.866H4.8v17.068z"/><path fill="#84829a" style="fill:var(--color1,#84829a)" d="M14.934 7.466h3.2c.294 0 .532.24.532.534v3.2c0 .294-.24.534-.532.534h-3.2a.534.534 0 0 1-.534-.534V8c0-.294.24-.534.534-.534zm.532 3.2H17.6V8.534h-2.134v2.132zm-.532-8.532h3.2c.294 0 .532.24.532.532v3.2c0 .296-.24.534-.532.534h-3.2a.534.534 0 0 1-.534-.534v-3.2c0-.294.24-.532.534-.532zm.532 3.2H17.6V3.2h-2.134v2.134zm4.8 2.132h3.2c.296 0 .534.24.534.534v3.2c0 .294-.24.534-.534.534h-3.2a.534.534 0 0 1-.532-.534V8c0-.294.24-.534.532-.534zm.534 3.2h2.134V8.534H20.8v2.132zm-.534-8.532h3.2c.296 0 .534.24.534.532v3.2c0 .296-.24.534-.534.534h-3.2a.534.534 0 0 1-.532-.534v-3.2c0-.294.24-.532.532-.532zm.534 3.2h2.134V3.2H20.8v2.134zm-.534 7.466h3.2c.296 0 .534.24.534.534v3.2c0 .294-.24.532-.534.532h-3.2a.534.534 0 0 1-.532-.532v-3.2c0-.296.24-.534.532-.534zM20.8 16h2.134v-2.134H20.8V16zm-.534 2.134h3.2c.296 0 .534.238.534.532v3.2c0 .296-.24.534-.534.534h-3.2a.534.534 0 0 1-.532-.534v-3.2c0-.294.24-.532.532-.532zm.534 3.2h2.134V19.2H20.8v2.134zm-10.666 3.2h-3.2A.534.534 0 0 1 6.4 24v-3.2c0-.294.24-.534.534-.534h3.2c.294 0 .532.24.532.534V24c0 .294-.24.534-.532.534zm-.534-3.2H7.466v2.132H9.6v-2.132zm.534-2.134h-3.2a.534.534 0 0 1-.534-.534v-3.2c0-.294.24-.532.534-.532h3.2c.294 0 .532.238.532.532v3.2c0 .294-.24.534-.532.534zM9.6 16H7.466v2.134H9.6V16zm.534 13.866h-3.2a.534.534 0 0 1-.534-.532v-3.2c0-.296.24-.534.534-.534h3.2c.294 0 .532.24.532.534v3.2c0 .294-.24.532-.532.532zm-.534-3.2H7.466V28.8H9.6v-2.134zm5.866-2.132h-3.2a.534.534 0 0 1-.532-.534v-3.2c0-.294.24-.534.532-.534h3.2c.296 0 .534.24.534.534V24c0 .294-.24.534-.534.534zm-.532-3.2H12.8v2.132h2.134v-2.132zm.532-2.134h-3.2a.534.534 0 0 1-.532-.534v-3.2c0-.294.24-.532.532-.532h3.2c.296 0 .534.238.534.532v3.2c0 .294-.24.534-.534.534zm-.532-3.2H12.8v2.134h2.134V16zm.532 13.866h-3.2a.534.534 0 0 1-.532-.532v-3.2c0-.296.24-.534.532-.534h3.2c.296 0 .534.24.534.534v3.2c0 .294-.24.532-.534.532zm-.532-3.2H12.8V28.8h2.134v-2.134z"/></symbol><symbol id="heart" viewBox="0 0 32 32"><path fill="#4152ca" style="fill:var(--color1,#4152ca)" d="M29.383 3.927a8.766 8.766 0 0 0-6.404-2.795 8.776 8.776 0 0 0-6.411 2.794l-.565.597-.565-.597a8.75 8.75 0 0 0-12.82 0 9.814 9.814 0 0 0 0 13.344l12.555 13.24a1.144 1.144 0 0 0 1.661 0l12.551-13.24a9.813 9.813 0 0 0 0-13.343zm-1.655 11.768h-.001L16.002 28.061 4.276 15.695a7.499 7.499 0 0 1 0-10.196 6.464 6.464 0 0 1 9.501 0l1.394 1.471a1.18 1.18 0 0 0 1.661 0l1.394-1.47a6.464 6.464 0 0 1 9.502 0c2.689 2.88 2.708 7.332 0 10.194z"/></symbol><symbol id="input-icon" viewBox="0 0 37 32"><path fill="none" stroke="#39425d" style="stroke:var(--color1,#39425d)" stroke-linecap="round" stroke-width="1.778" d="m7.111 10.667 9.6 7.2c.293.222.664.356 1.067.356s.773-.134 1.071-.359l-.004.003 9.6-7.2"/><path fill="none" stroke="#39425d" style="stroke:var(--color1,#39425d)" stroke-width="1.778" d="M8.889.889h19.556a8 8 0 0 1 8 8v14.222a8 8 0 0 1-8 8H8.889a8 8 0 0 1-8-8V8.889a8 8 0 0 1 8-8z"/></symbol><symbol id="form-decore-plus" viewBox="0 0 30 32"><path fill="#e5e5e5" style="fill:var(--color1,#e5e5e5)" d="M2.228 29.419v.36H.161v-.36h2.067zm-.841-.88v2.195h-.383v-2.195h.383zm7.588-5.867v.36H6.908v-.36h2.066zm-.841-.88v2.195h-.383v-2.195h.383zm6.747-19.361h.841v.362h-.841v.953h-.385v-.953h-.841v-.362h.841v-.88h.385v.88zm.841 6.747v.36h-2.067v-.36h2.066zm-.841-.88v2.195h-.383V8.298h.383z"/><path fill="#6246e5" style="fill:var(--color2,#6246e5)" d="M15.722 15.925v.36h-2.067v-.36h2.066zm-.841-.88v2.195h-.383v-2.195h.383z"/><path fill="#e5e5e5" style="fill:var(--color1,#e5e5e5)" d="M15.722 22.672v.36h-2.067v-.36h2.066zm-.841-.88v2.195h-.383v-2.195h.383zm.841 7.627v.36h-2.067v-.36h2.066zm-.841-.88v2.195h-.383v-2.195h.383zm7.588-26.108v.36h-2.067v-.36h2.067zm-.841-.88v2.195h-.383V1.551h.383zm.841 7.627v.36h-2.067v-.36h2.067zm-.841-.88v2.195h-.383V8.298h.383zm.841 7.627v.36h-2.067v-.36h2.067zm-.841-.88v2.195h-.383v-2.195h.383zm.841 7.627v.36h-2.067v-.36h2.067zm-.841-.88v2.195h-.383v-2.195h.383zm.841 7.627v.36h-2.067v-.36h2.067zm-.841-.88v2.195h-.383v-2.195h.383z"/><path fill="#ff7152" style="fill:var(--color3,#ff7152)" d="M28.375 2.431h.841v.362h-.841v.953h-.385v-.953h-.841v-.362h.841v-.88h.385v.88z"/><path fill="#e5e5e5" style="fill:var(--color1,#e5e5e5)" d="M28.375 9.178h.841v.362h-.841v.953h-.385V9.54h-.841v-.362h.841v-.88h.385v.88zm.841 6.747v.36h-2.067v-.36h2.067zm-.841-.88v2.195h-.383v-2.195h.383zm.841 7.627v.36h-2.067v-.36h2.067zm-.841-.88v2.195h-.383v-2.195h.383zm.841 7.627v.36h-2.067v-.36h2.067zm-.841-.88v2.195h-.383v-2.195h.383z"/></symbol><symbol id="icon-subscribe" viewBox="0 0 33 32"><path fill="#fff" style="fill:var(--color1,#fff)" d="M27.353 9.448a2.403 2.403 0 0 1-.177 2.706L13.741 29.686a2.43 2.43 0 0 1-2.399.913 2.428 2.428 0 0 1-1.889-1.737l-2.195-7.811-5.667-5.807a2.428 2.428 0 0 1-.56-2.505 2.432 2.432 0 0 1 1.99-1.622l21.901-2.869a2.404 2.404 0 0 1 2.432 1.2z"/><path fill="#fff" style="fill:var(--color1,#fff)" d="m7.464 21.786 1.988 7.075a2.426 2.426 0 0 0 1.889 1.737 2.427 2.427 0 0 0 2.399-.913l13.435-17.532a2.405 2.405 0 0 0 .177-2.706L7.256 21.049l.207.736z"/><path style="fill:var(--color2,#000)" d="M15.435 16.328a.74.74 0 0 1-.271 1.012l-7.699 4.445-.207-.736-.534-.547 7.699-4.445a.74.74 0 0 1 1.012.271z"/><path style="fill:var(--color2,#000)" d="m7.465 21.786 7.699-4.445a.74.74 0 0 0 .271-1.012L7.257 21.05l.207.736z"/></symbol><symbol id="facebook-icon" viewBox="0 0 17 32"><path d="M15.035 5.524a8.436 8.436 0 0 0-2.514-.413h-.007c-1.024 0-3.23.706-3.23 2.075v3.284h5.238v5.524H9.284v15.247H4.006V15.994H1.402V10.47h2.599V7.686C4.003 3.492 5.82.001 10.189.001c1.497 0 4.175.084 5.632.623l-.788 4.901z"/></symbol><symbol id="instagram-icon" viewBox="0 0 35 32"><path d="M29.954.102H5.595C2.813.102.548 2.193.548 4.762v22.492c0 2.57 2.264 4.66 5.047 4.66h24.359c2.783 0 5.047-2.09 5.047-4.66V4.762c0-2.569-2.264-4.66-5.047-4.66zm3.028 27.151c0 1.542-1.359 2.796-3.028 2.796H5.595c-1.669 0-3.028-1.254-3.028-2.796V4.761c0-1.541 1.359-2.796 3.028-2.796h24.359c1.669 0 3.028 1.254 3.028 2.796v22.492z"/><path d="M28.877 3.892c-1.113 0-2.019.836-2.019 1.864s.906 1.864 2.019 1.864 2.019-.836 2.019-1.864-.906-1.864-2.019-1.864zM17.774 7.62c-5.009 0-9.084 3.763-9.084 8.388s4.075 8.388 9.084 8.388c5.009 0 9.084-3.763 9.084-8.388S22.783 7.62 17.774 7.62zm0 14.911c-3.896 0-7.065-2.926-7.065-6.524s3.169-6.524 7.065-6.524c3.896 0 7.066 2.926 7.066 6.524s-3.169 6.524-7.066 6.524z"/></symbol><symbol id="twitter-icon" viewBox="0 0 39 32"><path d="M39.385 3.788a16.355 16.355 0 0 1-4.568 1.266l-.084.009A8.07 8.07 0 0 0 38.269.657L38.285.6a15.846 15.846 0 0 1-5.017 1.937l-.103.017a8.074 8.074 0 0 0-13.967 5.519v.002c0 .64.054 1.255.187 1.841a22.839 22.839 0 0 1-16.61-8.404l-.033-.042A7.99 7.99 0 0 0 1.64 5.545a8.078 8.078 0 0 0 3.555 6.698l.028.018a7.94 7.94 0 0 1-3.688-1.015l.04.021v.089a8.115 8.115 0 0 0 6.416 7.924l.053.009a7.872 7.872 0 0 1-2.054.266h-.067.003l-.127.001c-.496 0-.98-.051-1.448-.147l.046.008c1.074 3.229 4.029 5.533 7.534 5.624h.011a16.117 16.117 0 0 1-9.993 3.444H1.93h.001c-.662 0-1.297-.03-1.932-.111 3.478 2.272 7.738 3.623 12.312 3.623h.078-.004c14.858 0 22.981-12.308 22.981-22.976 0-.357-.012-.702-.03-1.044a16.243 16.243 0 0 0 4.01-4.134l.037-.058z"/></symbol><symbol id="google-play" viewBox="0 0 98 32"><path fill="#080809" style="fill:var(--color1,#080809)" d="M16 0h65.829c8.837 0 16 7.163 16 16s-7.163 16-16 16H16C7.163 32 0 24.837 0 16S7.163 0 16 0z"/><path fill="#2196f3" style="fill:var(--color2,#2196f3)" d="m26.064 15.544-9.183 8.842a1.564 1.564 0 0 1-.681-1.303V8.005a1.562 1.562 0 0 1 .681-1.303l9.183 8.842z"/><path fill="#4caf50" style="fill:var(--color3,#4caf50)" d="m29.277 12.456-3.213 3.089-9.183-8.842c.035-.027.071-.052.108-.075a1.57 1.57 0 0 1 1.586-.025l10.702 5.853z"/><path fill="#f0bb1f" style="fill:var(--color4,#f0bb1f)" d="M33.171 15.544a1.586 1.586 0 0 1-.83 1.411l-3.064 1.677-3.213-3.089 3.213-3.089 3.064 1.677c.517.28.836.823.83 1.411z"/><path fill="#f15a2b" style="fill:var(--color5,#f15a2b)" d="m29.277 18.633-10.702 5.853a1.593 1.593 0 0 1-1.586-.025 1.303 1.303 0 0 1-.108-.075l9.183-8.842 3.213 3.089z"/><path fill="#fff" style="fill:var(--color6,#fff)" d="M43.908 10.862h-2.567v1.024h1.368c-.183.49-.629.79-1.309.79-.995 0-1.609-.636-1.609-1.507 0-.9.644-1.536 1.507-1.536.578 0 1.039.263 1.251.6l.995-.571c-.432-.688-1.258-1.17-2.238-1.17a2.655 2.655 0 0 0-2.684 2.67c0 1.47 1.156 2.655 2.765 2.655 1.434 0 2.523-.951 2.523-2.516v-.439zM45.372 12.588v-.907h1.829v-1.112h-1.829v-.848h2.011V8.595h-3.182v5.12h3.218v-1.126h-2.048z"/><path fill="#fff" style="fill:var(--color6,#fff)" d="M51.152 8.594h-3.803V9.72h1.317v3.994h1.17V9.72h1.317V8.594zM52.762 8.594v5.12h1.17v-5.12h-1.17zM57.884 8.594h-3.803V9.72h1.317v3.994h1.17V9.72h1.317V8.594zM61.936 13.817c1.47 0 2.662-1.156 2.662-2.662s-1.192-2.662-2.662-2.662-2.662 1.156-2.662 2.662 1.192 2.662 2.662 2.662zm0-1.141c-.834 0-1.492-.607-1.492-1.521s.658-1.521 1.492-1.521 1.492.607 1.492 1.521-.658 1.521-1.492 1.521zM67.744 8.594v2.779l-1.975-2.779h-.878v5.12h1.17v-2.779l1.975 2.779h.878v-5.12h-1.17zM43.908 19.558v.198a2.16 2.16 0 0 1-.68 1.616c-.453.434-1.051.651-1.792.651-.78 0-1.424-.254-1.931-.761-.507-.512-.761-1.139-.761-1.88s.251-1.365.753-1.872c.502-.512 1.139-.768 1.909-.768.468 0 .897.112 1.287.336.395.224.7.524.914.9l-.344.205a1.934 1.934 0 0 0-.761-.775 2.125 2.125 0 0 0-1.097-.293c-.663 0-1.209.219-1.638.658-.424.434-.636.97-.636 1.609s.215 1.178.644 1.616c.429.434.983.651 1.66.651.6 0 1.085-.163 1.456-.49s.578-.739.622-1.236h-2.172v-.366h2.567zM49.1 21.255c-.512.512-1.136.768-1.872.768s-1.36-.256-1.872-.768c-.512-.517-.768-1.141-.768-1.872s.256-1.353.768-1.865c.512-.517 1.136-.775 1.872-.775s1.36.258 1.872.775c.512.512.768 1.134.768 1.865s-.256 1.356-.768 1.872zm-3.475-.263c.439.439.973.658 1.602.658s1.16-.219 1.594-.658c.439-.444.658-.98.658-1.609s-.219-1.163-.658-1.602c-.434-.444-.965-.666-1.594-.666s-1.163.222-1.602.666c-.434.439-.651.973-.651 1.602s.217 1.165.651 1.609zM55.071 21.255c-.512.512-1.136.768-1.872.768s-1.36-.256-1.872-.768c-.512-.517-.768-1.141-.768-1.872s.256-1.353.768-1.865c.512-.517 1.136-.775 1.872-.775s1.36.258 1.872.775c.512.512.768 1.134.768 1.865s-.256 1.356-.768 1.872zm-3.474-.263c.439.439.973.658 1.602.658s1.16-.219 1.595-.658c.439-.444.658-.98.658-1.609s-.219-1.163-.658-1.602c-.434-.444-.965-.666-1.594-.666s-1.163.222-1.602.666c-.434.439-.651.973-.651 1.602s.217 1.165.651 1.609zM61.693 19.558v.198a2.16 2.16 0 0 1-.68 1.616c-.453.434-1.051.651-1.792.651-.78 0-1.424-.254-1.931-.761-.507-.512-.761-1.139-.761-1.88s.251-1.365.753-1.872c.502-.512 1.139-.768 1.909-.768.468 0 .897.112 1.287.336.395.224.7.524.914.9l-.344.205a1.934 1.934 0 0 0-.761-.775 2.125 2.125 0 0 0-1.097-.293c-.663 0-1.209.219-1.638.658-.424.434-.636.97-.636 1.609s.215 1.178.644 1.616c.429.434.983.651 1.66.651.6 0 1.085-.163 1.456-.49s.578-.739.622-1.236h-2.172v-.366h2.567zM63.053 21.577h2.414v.366h-2.801v-5.12h.388v4.754zM66.66 21.577h2.56v.366h-2.948v-5.12h2.911v.366H66.66v1.989h2.341v.366H66.66v2.033zM73.863 16.823c.458 0 .839.151 1.141.454s.454.68.454 1.134c0 .453-.151.831-.454 1.134-.302.297-.683.446-1.141.446H72.51v1.953h-.388v-5.12h1.741zm0 2.801a1.18 1.18 0 0 0 1.207-1.214c0-.356-.115-.648-.344-.878-.224-.229-.512-.344-.863-.344H72.51v2.436h1.353zM76.803 21.577h2.414v.366h-2.801v-5.12h.388v4.754zM83.61 21.943l-.497-1.302h-2.567l-.497 1.302h-.41l1.99-5.12h.41l1.982 5.12h-.41zm-2.918-1.668h2.282l-1.141-2.977-1.141 2.977zM87.663 16.823l-1.865 3.014v2.107h-.388v-2.107l-1.865-3.014h.439l1.624 2.64 1.616-2.64h.439z"/></symbol><symbol id="apple-store" viewBox="0 0 91 32"><path fill="#080809" style="fill:var(--color1,#080809)" d="M16 0h59.429c8.837 0 16 7.163 16 16s-7.163 16-16 16H16C7.163 32 0 24.837 0 16S7.163 0 16 0z"/><path fill="#fff" style="fill:var(--color6,#fff)" d="M19.922 21.943c-2.177-.013-3.978-4.457-3.978-6.72 0-3.697 2.774-4.507 3.843-4.507.482 0 .996.189 1.45.357.317.117.645.237.828.237.109 0 .367-.102.594-.193.485-.193 1.088-.433 1.79-.433h.004c.524 0 2.114.115 3.07 1.551l.224.337-.322.243c-.46.347-1.3.981-1.3 2.236 0 1.487.951 2.058 1.408 2.333.202.121.41.247.41.52 0 .179-1.426 4.016-3.498 4.016-.507 0-.865-.152-1.181-.287-.32-.136-.596-.253-1.051-.253-.231 0-.523.109-.832.225-.423.158-.901.337-1.444.337h-.014zM24.667 7.314c.054 1.945-1.337 3.294-2.726 3.21-.229-1.552 1.389-3.21 2.726-3.21zM35.685 11.886h.96l-1.306-3.84H34.22l-1.306 3.84h.96l.192-.603h1.426l.192.603zM34.33 10.46l.45-1.41.45 1.41h-.9zM38.587 9.143l-.571 1.739-.571-1.739h-.911l1.015 2.743h.933l1.015-2.743h-.911zM41.684 9.143v.258c-.181-.208-.45-.335-.817-.335-.719 0-1.311.631-1.311 1.448s.592 1.448 1.311 1.448c.368 0 .636-.126.817-.335v.258h.823V9.142h-.823zm-.653 2.041c-.379 0-.653-.258-.653-.669s.274-.669.653-.669.653.258.653.669-.274.669-.653.669zM43.111 11.886h.823V7.881h-.823v4.005zM44.947 8.902c.269 0 .494-.225.494-.494s-.225-.494-.494-.494-.494.225-.494.494.225.494.494.494zm-.411 2.984h.823V9.143h-.823v2.743zM47.601 9.066c-.368 0-.636.126-.817.335V8.046h-.823v3.84h.823v-.258c.181.208.45.335.817.335.719 0 1.311-.631 1.311-1.448s-.592-1.448-1.311-1.448zm-.165 2.118c-.379 0-.653-.258-.653-.669s.274-.669.653-.669.653.258.653.669-.274.669-.653.669zM49.378 11.886h.823V7.881h-.823v4.005zM51.539 10.844h1.947c.022-.104.033-.214.033-.329 0-.828-.592-1.448-1.393-1.448-.867 0-1.459.631-1.459 1.448s.581 1.448 1.52 1.448c.521 0 .927-.192 1.196-.565l-.658-.379a.716.716 0 0 1-.527.208c-.302 0-.554-.099-.658-.384zm-.017-.615c.077-.28.285-.433.598-.433.247 0 .494.115.581.433h-1.179zM56.674 11.963c.806 0 1.454-.631 1.454-1.448s-.647-1.448-1.454-1.448c-.806 0-1.454.631-1.454 1.448s.647 1.448 1.454 1.448zm0-.801c-.357 0-.631-.258-.631-.647s.274-.647.631-.647.631.258.631.647-.274.647-.631.647zM60.2 9.066c-.362 0-.636.132-.784.335v-.258h-.823v2.743h.823v-1.498c0-.389.208-.565.51-.565.263 0 .477.159.477.499v1.563h.823v-1.684c0-.741-.472-1.136-1.026-1.136zM64.77 9.933v-.79h-.565v-.768l-.823.247v.521h-.439v.79h.439v.971c0 .768.313 1.092 1.388.982v-.746c-.362.022-.565 0-.565-.236v-.971h.565zM66.843 9.066c-.362 0-.636.132-.784.335V8.046h-.823v3.84h.823v-1.498c0-.389.208-.565.51-.565.263 0 .477.159.477.499v1.563h.823v-1.684c0-.741-.472-1.136-1.026-1.136zM69.169 10.844h1.947c.022-.104.033-.214.033-.329 0-.828-.592-1.448-1.393-1.448-.867 0-1.459.631-1.459 1.448s.582 1.448 1.52 1.448c.521 0 .927-.192 1.196-.565l-.658-.379a.716.716 0 0 1-.527.208c-.302 0-.554-.099-.658-.384zm-.017-.615c.077-.28.285-.433.598-.433.247 0 .494.115.582.433h-1.179zM37.531 21.943h1.6l-2.176-6.4H35.09l-2.176 6.4h1.6l.32-1.006h2.377l.32 1.006zm-2.258-2.377.75-2.35.75 2.35h-1.499zM42.365 17.244c-.613 0-1.061.21-1.362.558v-.43h-1.371v6.4h1.371v-2.258c.302.347.75.558 1.362.558 1.198 0 2.185-1.051 2.185-2.414s-.987-2.414-2.185-2.414zm-.274 3.529c-.631 0-1.088-.43-1.088-1.115s.457-1.115 1.088-1.115 1.088.43 1.088 1.115-.457 1.115-1.088 1.115zM48.062 17.244c-.613 0-1.061.21-1.362.558v-.43h-1.371v6.4H46.7v-2.258c.302.347.75.558 1.362.558 1.198 0 2.185-1.051 2.185-2.414s-.987-2.414-2.185-2.414zm-.275 3.529c-.631 0-1.088-.43-1.088-1.115s.457-1.115 1.088-1.115 1.088.43 1.088 1.115-.457 1.115-1.088 1.115zM51.024 21.943h1.371v-6.674h-1.371v6.674zM54.624 20.206h3.246c.037-.174.055-.357.055-.549 0-1.381-.987-2.414-2.322-2.414-1.445 0-2.432 1.051-2.432 2.414s.969 2.414 2.533 2.414c.869 0 1.545-.32 1.993-.942l-1.097-.631c-.183.201-.503.347-.878.347-.503 0-.923-.165-1.097-.64zm-.027-1.024c.128-.466.475-.722.997-.722.411 0 .823.192.969.722h-1.966zM63.274 22.071c1.39 0 2.377-.731 2.377-1.966 0-1.353-1.088-1.691-2.057-1.984-.997-.302-1.152-.503-1.152-.795 0-.256.229-.485.686-.485.585 0 .887.283 1.106.741l1.234-.722c-.466-.942-1.289-1.445-2.341-1.445-1.106 0-2.148.713-2.148 1.947 0 1.225.932 1.682 1.883 1.947.96.265 1.326.421 1.326.814 0 .247-.174.521-.869.521-.722 0-1.115-.357-1.344-.887l-1.262.731c.357.942 1.216 1.582 2.56 1.582zM68.882 18.688v-1.317h-.942v-1.28l-1.371.411v.869h-.731v1.317h.731v1.618c0 1.28.521 1.819 2.313 1.637V20.7c-.603.037-.942 0-.942-.393v-1.618h.942zM71.763 22.071c1.344 0 2.423-1.051 2.423-2.414s-1.079-2.414-2.423-2.414-2.423 1.051-2.423 2.414 1.079 2.414 2.423 2.414zm0-1.335c-.594 0-1.051-.43-1.051-1.079s.457-1.079 1.051-1.079c.594 0 1.051.43 1.051 1.079s-.457 1.079-1.051 1.079zM76.333 18.185v-.814h-1.371v4.571h1.371v-2.066c0-.905.805-1.134 1.371-1.042V17.28c-.576 0-1.189.293-1.371.905zM79.437 20.206h3.246c.037-.174.055-.357.055-.549 0-1.381-.987-2.414-2.322-2.414-1.445 0-2.432 1.051-2.432 2.414s.969 2.414 2.533 2.414c.869 0 1.545-.32 1.993-.942l-1.097-.631c-.183.201-.503.347-.878.347-.503 0-.923-.165-1.097-.64zm-.028-1.024c.128-.466.475-.722.997-.722.411 0 .823.192.969.722h-1.966z"/></symbol></defs></svg>