<svg aria-hidden="true" style="position: absolute; width: 0; height: 0; overflow: hidden;" version="1.1" xmlns="http://www.w3.org/2000/svg" xmlns:xlink="http://www.w3.org/1999/xlink">
<defs>
<symbol id="logo-color" viewBox="0 0 106 32">
<path fill="#f1a501" style="fill: var(--color1, #f1a501)" d="M68.571 26.514l8.686 2.743 7.314-7.314 9.143 6.4 9.6-1.829-4.114-13.257-14.629 4.571-8.229-4.571-8.686 1.371 0.914 11.886z"></path>
<path fill="#000" style="fill: var(--color2, #000)" d="M0.841 22.001v-1.977l5.594-1.009v2.734c0.027 1.486 0.407 2.608 1.136 3.365 0.757 0.729 1.753 1.093 2.986 1.093 1.206 0 2.159-0.393 2.86-1.178 0.729-0.785 1.094-1.837 1.094-3.154v-20.608h5.804v20.608c0 2.747-0.912 5.074-2.734 6.982s-4.15 2.86-6.982 2.86c-2.944 0-5.313-0.883-7.108-2.65-1.766-1.795-2.65-4.15-2.65-7.066zM21.648 25.45c0-1.766 0.574-3.182 1.724-4.248s2.635-1.738 4.458-2.019l5.089-0.757c1.037-0.14 1.556-0.631 1.556-1.472 0-0.785-0.309-1.43-0.925-1.935-0.589-0.505-1.445-0.757-2.566-0.757-1.178 0-2.117 0.323-2.818 0.967-0.673 0.645-1.051 1.445-1.136 2.397l-4.963-1.051c0.196-1.795 1.079-3.378 2.65-4.752s3.644-2.061 6.224-2.061c3.084 0 5.355 0.743 6.813 2.229 1.457 1.458 2.187 3.337 2.187 5.636v10.178c0 1.234 0.084 2.327 0.252 3.28h-5.132c-0.141-0.617-0.21-1.445-0.21-2.481-1.318 2.047-3.351 3.070-6.098 3.070-2.131 0-3.856-0.617-5.173-1.851-1.29-1.234-1.935-2.692-1.935-4.374zM29.933 27.511c1.317 0 2.397-0.365 3.238-1.093 0.869-0.757 1.304-1.99 1.304-3.701v-0.925l-4.668 0.715c-1.711 0.252-2.566 1.122-2.566 2.608 0 0.673 0.238 1.248 0.715 1.724 0.476 0.448 1.136 0.673 1.977 0.673zM61.859 0.636v26.706c0 1.374 0.056 2.621 0.168 3.743h-5.341c-0.141-0.701-0.21-1.499-0.21-2.397-0.477 0.869-1.234 1.57-2.271 2.103-1.009 0.533-2.187 0.799-3.533 0.799-2.944 0-5.37-1.024-7.276-3.070-1.879-2.075-2.818-4.682-2.818-7.823 0-3.056 0.925-5.622 2.776-7.696 1.878-2.075 4.261-3.112 7.15-3.112 2.971 0 4.921 0.855 5.846 2.566v-11.818h5.51zM46.214 20.698c0 1.822 0.476 3.267 1.43 4.332 0.953 1.038 2.187 1.556 3.701 1.556 1.486 0 2.705-0.533 3.659-1.598s1.43-2.51 1.43-4.332c0-1.795-0.477-3.196-1.43-4.206-0.954-1.038-2.173-1.556-3.659-1.556s-2.72 0.518-3.701 1.556c-0.954 1.038-1.43 2.453-1.43 4.248zM70.114 25.072c1.037 1.038 2.285 1.556 3.743 1.556s2.692-0.518 3.701-1.556c1.037-1.038 1.556-2.481 1.556-4.332s-0.519-3.294-1.556-4.332c-1.009-1.038-2.244-1.556-3.701-1.556s-2.706 0.518-3.743 1.556c-1.009 1.038-1.514 2.481-1.514 4.332s0.505 3.294 1.514 4.332zM66.076 12.875c2.075-2.075 4.668-3.112 7.781-3.112s5.691 1.038 7.739 3.112c2.075 2.075 3.112 4.697 3.112 7.865s-1.038 5.79-3.112 7.865c-2.048 2.075-4.626 3.112-7.739 3.112s-5.706-1.038-7.781-3.112c-2.048-2.075-3.070-4.697-3.070-7.865s1.023-5.79 3.070-7.865z"></path>
<path fill="#000" style="fill: var(--color2, #000)" d="M91.31 25.072c1.038 1.038 2.285 1.556 3.743 1.556s2.692-0.518 3.701-1.556c1.038-1.038 1.556-2.481 1.556-4.332s-0.518-3.294-1.556-4.332c-1.009-1.038-2.243-1.556-3.701-1.556s-2.705 0.518-3.743 1.556c-1.009 1.038-1.514 2.481-1.514 4.332s0.505 3.294 1.514 4.332zM87.272 12.875c2.075-2.075 4.668-3.112 7.781-3.112s5.691 1.038 7.739 3.112c2.075 2.075 3.112 4.697 3.112 7.865s-1.038 5.79-3.112 7.865c-2.047 2.075-4.626 3.112-7.739 3.112s-5.705-1.038-7.781-3.112c-2.047-2.075-3.070-4.697-3.070-7.865s1.024-5.79 3.070-7.865z"></path>
</symbol>
<symbol id="icon-play" viewBox="0 0 30 32">
<path fill="#fff" style="fill: var(--color1, #fff)" d="M29.538 16l-27.692 15.988v-31.975l27.692 15.988z"></path>
</symbol>
<symbol id="icon-plane" viewBox="0 0 35 32">
<path fill="#d5d6db" style="fill: var(--color1, #d5d6db)" d="M19.984 18.046c-0.306 0.071-0.576 0.19-0.817 0.35l0.009-0.006c-0.652 0.416-1.032 1.009-0.848 1.326s0.863 0.235 1.515-0.18c0.258-0.162 0.478-0.359 0.659-0.587l0.004-0.005c0.085-0.113 0.1-0.253 0.039-0.358l-0.239-0.411c-0.061-0.105-0.187-0.155-0.322-0.128zM18.345 12.437c-0.205 0.046-0.404 0.131-0.586 0.249-0.473 0.302-0.749 0.732-0.615 0.961s0.625 0.17 1.099-0.131c0.187-0.118 0.346-0.261 0.478-0.426l0.003-0.004c0.062-0.082 0.073-0.183 0.028-0.259l-0.174-0.298c-0.044-0.076-0.136-0.113-0.233-0.093z"></path>
<path fill="#029bc5" style="fill: var(--color2, #029bc5)" d="M15.683 12.672c-0.006-0.001-0.013-0.001-0.020-0.001-0.043 0-0.084 0.013-0.118 0.035l0.001-0.001-1.111 0.708c-0.093 0.059-0.13 0.173-0.083 0.254 0.011 0.019 0.026 0.034 0.044 0.047l2.739 1.888 3.706-2.362-5.157-0.569z"></path>
<path fill="#e1e6e9" style="fill: var(--color3, #e1e6e9)" d="M27.397 12.405l-10.085 6.348-5.966 2.374-3.043 0.605-0.335-0.569 16.809-10.379c0.501-0.311 1.059-0.501 1.618-0.553 0.078-0.007 0.169-0.012 0.261-0.012 0.162 0 0.321 0.013 0.476 0.038l-0.017-0.002c0.207 0.031 0.402 0.092 0.582 0.179 0.2 0.1 0.581 0.111 0.705 0.309 0-0 0.292 0.909-1.005 1.66z"></path>
<path fill="#029bc5" style="fill: var(--color2, #029bc5)" d="M17.447 17.914l-4.363 6.955c-0.054 0.098-0.022 0.207 0.072 0.244 0.058 0.023 0.129 0.014 0.188-0.024l1.11-0.704c0.217-0.139 0.4-0.307 0.552-0.501l0.004-0.005 8.461-9.947-6.024 3.982zM6.438 17.681c-0.073-0.025-0.159-0.012-0.233 0.035l-0.918 0.585c-0.125 0.080-0.175 0.233-0.111 0.342 0.012 0.021 0.028 0.039 0.047 0.054l2.572 2.060 2.704-1.689-4.061-1.386zM8.657 21.128l-1.384 1.939c-0.020 0.028-0.016 0.063 0.011 0.078 0.019 0.011 0.045 0.009 0.066-0.005l0.858-0.544c0.007-0.004 0.013-0.010 0.018-0.015l0-0 2.023-2.459-1.59 1.007zM26.95 10.34c-0.141-0.023-0.304-0.037-0.469-0.037-0.096 0-0.19 0.004-0.284 0.013l0.012-0.001c-0.245 0.343-0.402 0.728-0.455 1.118-0.004 0.078 0.059 0.134 0.141 0.126 0.028-0.003 0.052-0.012 0.074-0.026l-0.001 0 1.581-1.007c-0.174-0.087-0.375-0.152-0.588-0.185l-0.011-0.001z"></path>
<path fill="#d5d6db" style="fill: var(--color1, #d5d6db)" d="M23.505 12.191l1.032-0.652 0.961 1.635-1.032 0.652-0.961-1.635z"></path>
<path fill="#3a556a" style="fill: var(--color4, #3a556a)" d="M22.855 12.838c-0.124 0.079-0.174 0.23-0.111 0.338l0.102 0.175c0.067 0.105 0.221 0.124 0.343 0.041 0.116-0.079 0.163-0.221 0.107-0.327l-0.102-0.175c-0.063-0.108-0.215-0.132-0.339-0.053zM21.928 13.414c-0.124 0.079-0.174 0.23-0.111 0.338l0.102 0.175c0.067 0.105 0.221 0.124 0.343 0.042 0.116-0.079 0.163-0.221 0.107-0.327l-0.102-0.175c-0.063-0.108-0.215-0.132-0.339-0.053zM21 13.991c-0.124 0.079-0.174 0.23-0.111 0.338l0.102 0.175c0.067 0.105 0.221 0.124 0.343 0.041 0.116-0.079 0.163-0.221 0.107-0.327l-0.102-0.175c-0.063-0.108-0.215-0.132-0.34-0.053zM20.072 14.567c-0.124 0.079-0.174 0.23-0.111 0.338l0.102 0.175c0.067 0.105 0.221 0.124 0.343 0.041 0.116-0.079 0.163-0.221 0.107-0.326l-0.102-0.175c-0.063-0.108-0.215-0.132-0.34-0.053zM19.145 15.143c-0.124 0.079-0.174 0.23-0.111 0.338l0.102 0.175c0.063 0.108 0.215 0.132 0.339 0.053s0.174-0.23 0.111-0.338l-0.102-0.175c-0.063-0.108-0.215-0.132-0.339-0.053h-0zM18.217 15.719c-0.124 0.079-0.174 0.23-0.111 0.338l0.102 0.175c0.063 0.108 0.215 0.132 0.339 0.053s0.174-0.23 0.111-0.338l-0.102-0.175c-0.063-0.108-0.215-0.132-0.339-0.053h-0zM17.289 16.295c-0.124 0.079-0.174 0.23-0.111 0.338l0.102 0.175c0.063 0.108 0.215 0.131 0.34 0.052s0.174-0.23 0.111-0.337l-0.102-0.175c-0.063-0.108-0.215-0.132-0.34-0.053zM16.362 16.871c-0.124 0.079-0.174 0.23-0.111 0.338l0.102 0.175c0.063 0.108 0.215 0.131 0.34 0.052s0.174-0.23 0.111-0.337l-0.102-0.175c-0.063-0.108-0.215-0.132-0.339-0.053zM15.434 17.447c-0.124 0.079-0.174 0.23-0.111 0.338l0.102 0.175c0.063 0.108 0.215 0.131 0.34 0.052s0.174-0.23 0.111-0.337l-0.102-0.175c-0.063-0.108-0.215-0.132-0.339-0.053zM14.506 18.023c-0.124 0.079-0.174 0.23-0.111 0.338v0l0.102 0.175c0.063 0.108 0.215 0.131 0.34 0.052s0.174-0.23 0.111-0.337l-0.102-0.175c-0.063-0.108-0.215-0.132-0.339-0.053zM13.579 18.599c-0.124 0.079-0.174 0.23-0.111 0.338v0l0.102 0.175c0.063 0.108 0.215 0.131 0.34 0.052s0.174-0.23 0.111-0.337l-0.102-0.175c-0.063-0.108-0.215-0.132-0.339-0.053z"></path>
</symbol>
</defs>
</svg>

