<svg aria-hidden="true" style="position: absolute; width: 0; height: 0; overflow: hidden;" version="1.1" xmlns="http://www.w3.org/2000/svg" xmlns:xlink="http://www.w3.org/1999/xlink">
<defs>
<symbol id="logo-color" viewBox="0 0 106 32">
<path fill="#f1a501" style="fill: var(--color1, #f1a501)" d="M68.571 26.514l8.686 2.743 7.314-7.314 9.143 6.4 9.6-1.829-4.114-13.257-14.629 4.571-8.229-4.571-8.686 1.371 0.914 11.886z"></path>
<path fill="#000" style="fill: var(--color2, #000)" d="M0.841 22.001v-1.977l5.594-1.009v2.734c0.027 1.486 0.407 2.608 1.136 3.365 0.757 0.729 1.753 1.093 2.986 1.093 1.206 0 2.159-0.393 2.86-1.178 0.729-0.785 1.094-1.837 1.094-3.154v-20.608h5.804v20.608c0 2.747-0.912 5.074-2.734 6.982s-4.15 2.86-6.982 2.86c-2.944 0-5.313-0.883-7.108-2.65-1.766-1.795-2.65-4.15-2.65-7.066zM21.648 25.45c0-1.766 0.574-3.182 1.724-4.248s2.635-1.738 4.458-2.019l5.089-0.757c1.037-0.14 1.556-0.631 1.556-1.472 0-0.785-0.309-1.43-0.925-1.935-0.589-0.505-1.445-0.757-2.566-0.757-1.178 0-2.117 0.323-2.818 0.967-0.673 0.645-1.051 1.445-1.136 2.397l-4.963-1.051c0.196-1.795 1.079-3.378 2.65-4.752s3.644-2.061 6.224-2.061c3.084 0 5.355 0.743 6.813 2.229 1.457 1.458 2.187 3.337 2.187 5.636v10.178c0 1.234 0.084 2.327 0.252 3.28h-5.132c-0.141-0.617-0.21-1.445-0.21-2.481-1.318 2.047-3.351 3.070-6.098 3.070-2.131 0-3.856-0.617-5.173-1.851-1.29-1.234-1.935-2.692-1.935-4.374zM29.933 27.511c1.317 0 2.397-0.365 3.238-1.093 0.869-0.757 1.304-1.99 1.304-3.701v-0.925l-4.668 0.715c-1.711 0.252-2.566 1.122-2.566 2.608 0 0.673 0.238 1.248 0.715 1.724 0.476 0.448 1.136 0.673 1.977 0.673zM61.859 0.636v26.706c0 1.374 0.056 2.621 0.168 3.743h-5.341c-0.141-0.701-0.21-1.499-0.21-2.397-0.477 0.869-1.234 1.57-2.271 2.103-1.009 0.533-2.187 0.799-3.533 0.799-2.944 0-5.37-1.024-7.276-3.070-1.879-2.075-2.818-4.682-2.818-7.823 0-3.056 0.925-5.622 2.776-7.696 1.878-2.075 4.261-3.112 7.15-3.112 2.971 0 4.921 0.855 5.846 2.566v-11.818h5.51zM46.214 20.698c0 1.822 0.476 3.267 1.43 4.332 0.953 1.038 2.187 1.556 3.701 1.556 1.486 0 2.705-0.533 3.659-1.598s1.43-2.51 1.43-4.332c0-1.795-0.477-3.196-1.43-4.206-0.954-1.038-2.173-1.556-3.659-1.556s-2.72 0.518-3.701 1.556c-0.954 1.038-1.43 2.453-1.43 4.248zM70.114 25.072c1.037 1.038 2.285 1.556 3.743 1.556s2.692-0.518 3.701-1.556c1.037-1.038 1.556-2.481 1.556-4.332s-0.519-3.294-1.556-4.332c-1.009-1.038-2.244-1.556-3.701-1.556s-2.706 0.518-3.743 1.556c-1.009 1.038-1.514 2.481-1.514 4.332s0.505 3.294 1.514 4.332zM66.076 12.875c2.075-2.075 4.668-3.112 7.781-3.112s5.691 1.038 7.739 3.112c2.075 2.075 3.112 4.697 3.112 7.865s-1.038 5.79-3.112 7.865c-2.048 2.075-4.626 3.112-7.739 3.112s-5.706-1.038-7.781-3.112c-2.048-2.075-3.070-4.697-3.070-7.865s1.023-5.79 3.070-7.865z"></path>
<path fill="#000" style="fill: var(--color2, #000)" d="M91.31 25.072c1.038 1.038 2.285 1.556 3.743 1.556s2.692-0.518 3.701-1.556c1.038-1.038 1.556-2.481 1.556-4.332s-0.518-3.294-1.556-4.332c-1.009-1.038-2.243-1.556-3.701-1.556s-2.705 0.518-3.743 1.556c-1.009 1.038-1.514 2.481-1.514 4.332s0.505 3.294 1.514 4.332zM87.272 12.875c2.075-2.075 4.668-3.112 7.781-3.112s5.691 1.038 7.739 3.112c2.075 2.075 3.112 4.697 3.112 7.865s-1.038 5.79-3.112 7.865c-2.047 2.075-4.626 3.112-7.739 3.112s-5.705-1.038-7.781-3.112c-2.047-2.075-3.070-4.697-3.070-7.865s1.024-5.79 3.070-7.865z"></path>
</symbol>
<symbol id="logo" viewBox="0 0 140 32">
<path fill="#181e4b" style="fill: var(--color1, #181e4b)" d="M13.097 23.025c0 2.402-1.201 4.141-3.727 4.141s-3.686-1.739-3.727-4.141h-4.762c0 5.218 3.52 8.324 8.489 8.324s8.489-3.106 8.489-8.324v-20.747h-4.762v20.747zM23.966 19.546c0 7.040 4.762 11.885 10.684 11.885 3.81 0 6.543-1.822 7.992-3.768v3.396h4.762v-22.818h-4.762v3.313c-1.408-1.864-4.058-3.686-7.91-3.686-6.005 0-10.767 4.638-10.767 11.678zM42.643 19.629c0 4.928-3.354 7.703-6.916 7.703-3.52 0-6.916-2.857-6.916-7.785s3.396-7.578 6.916-7.578c3.561 0 6.916 2.775 6.916 7.661zM52.032 19.546c0 7.040 4.762 11.885 10.767 11.885 3.727 0 6.46-1.739 7.91-3.81v3.437h4.762v-30.645h-4.762v11.016c-1.739-2.153-4.887-3.561-7.868-3.561-6.046 0-10.808 4.638-10.808 11.678zM70.709 19.629c0 4.928-3.354 7.703-6.916 7.703-3.52 0-6.916-2.857-6.916-7.785s3.396-7.578 6.916-7.578c3.561 0 6.916 2.775 6.916 7.661zM103.414 19.629c0-7.164-5.135-11.761-11.637-11.761s-11.637 4.597-11.637 11.761 4.928 11.802 11.43 11.802c6.543 0 11.844-4.638 11.844-11.802zM84.944 19.629c0-5.176 3.189-7.661 6.75-7.661 3.52 0 6.874 2.485 6.874 7.661s-3.479 7.703-6.999 7.703c-3.561 0-6.626-2.526-6.626-7.703zM129.821 19.629c0-7.164-5.135-11.761-11.637-11.761s-11.637 4.597-11.637 11.761 4.928 11.802 11.43 11.802c6.543 0 11.844-4.638 11.844-11.802zM111.352 19.629c0-5.176 3.189-7.661 6.75-7.661 3.52 0 6.874 2.485 6.874 7.661s-3.479 7.703-6.999 7.703c-3.561 0-6.626-2.526-6.626-7.703zM139.375 28.326c0-1.698-1.325-3.023-2.982-3.023-0.011-0-0.023-0-0.036-0-1.65 0-2.987 1.337-2.987 2.987 0 0.013 0 0.025 0 0.038l-0-0.002c-0 0.011-0 0.023-0 0.036 0 1.65 1.337 2.987 2.987 2.987 0.013 0 0.025-0 0.038-0l-0.002 0c1.656 0 2.982-1.325 2.982-3.023z"></path>
</symbol>
<symbol id="icon-play" viewBox="0 0 30 32">
<path fill="#fff" style="fill: var(--color1, #fff)" d="M29.538 16l-27.692 15.988v-31.975l27.692 15.988z"></path>
</symbol>
<symbol id="icon-plane" viewBox="0 0 35 32">
<path fill="#d5d6db" style="fill: var(--color1, #d5d6db)" d="M19.984 18.046c-0.306 0.071-0.576 0.19-0.817 0.35l0.009-0.006c-0.652 0.416-1.032 1.009-0.848 1.326s0.863 0.235 1.515-0.18c0.258-0.162 0.478-0.359 0.659-0.587l0.004-0.005c0.085-0.113 0.1-0.253 0.039-0.358l-0.239-0.411c-0.061-0.105-0.187-0.155-0.322-0.128zM18.345 12.437c-0.205 0.046-0.404 0.131-0.586 0.249-0.473 0.302-0.749 0.732-0.615 0.961s0.625 0.17 1.099-0.131c0.187-0.118 0.346-0.261 0.478-0.426l0.003-0.004c0.062-0.082 0.073-0.183 0.028-0.259l-0.174-0.298c-0.044-0.076-0.136-0.113-0.233-0.093z"></path>
<path fill="#029bc5" style="fill: var(--color2, #029bc5)" d="M15.683 12.672c-0.006-0.001-0.013-0.001-0.020-0.001-0.043 0-0.084 0.013-0.118 0.035l0.001-0.001-1.111 0.708c-0.093 0.059-0.13 0.173-0.083 0.254 0.011 0.019 0.026 0.034 0.044 0.047l2.739 1.888 3.706-2.362-5.157-0.569z"></path>
<path fill="#e1e6e9" style="fill: var(--color3, #e1e6e9)" d="M27.397 12.405l-10.085 6.348-5.966 2.374-3.043 0.605-0.335-0.569 16.809-10.379c0.501-0.311 1.059-0.501 1.618-0.553 0.078-0.007 0.169-0.012 0.261-0.012 0.162 0 0.321 0.013 0.476 0.038l-0.017-0.002c0.207 0.031 0.402 0.092 0.582 0.179 0.2 0.1 0.581 0.111 0.705 0.309 0-0 0.292 0.909-1.005 1.66z"></path>
<path fill="#029bc5" style="fill: var(--color2, #029bc5)" d="M17.447 17.914l-4.363 6.955c-0.054 0.098-0.022 0.207 0.072 0.244 0.058 0.023 0.129 0.014 0.188-0.024l1.11-0.704c0.217-0.139 0.4-0.307 0.552-0.501l0.004-0.005 8.461-9.947-6.024 3.982zM6.438 17.681c-0.073-0.025-0.159-0.012-0.233 0.035l-0.918 0.585c-0.125 0.080-0.175 0.233-0.111 0.342 0.012 0.021 0.028 0.039 0.047 0.054l2.572 2.060 2.704-1.689-4.061-1.386zM8.657 21.128l-1.384 1.939c-0.020 0.028-0.016 0.063 0.011 0.078 0.019 0.011 0.045 0.009 0.066-0.005l0.858-0.544c0.007-0.004 0.013-0.010 0.018-0.015l0-0 2.023-2.459-1.59 1.007zM26.95 10.34c-0.141-0.023-0.304-0.037-0.469-0.037-0.096 0-0.19 0.004-0.284 0.013l0.012-0.001c-0.245 0.343-0.402 0.728-0.455 1.118-0.004 0.078 0.059 0.134 0.141 0.126 0.028-0.003 0.052-0.012 0.074-0.026l-0.001 0 1.581-1.007c-0.174-0.087-0.375-0.152-0.588-0.185l-0.011-0.001z"></path>
<path fill="#d5d6db" style="fill: var(--color1, #d5d6db)" d="M23.505 12.191l1.032-0.652 0.961 1.635-1.032 0.652-0.961-1.635z"></path>
<path fill="#3a556a" style="fill: var(--color4, #3a556a)" d="M22.855 12.838c-0.124 0.079-0.174 0.23-0.111 0.338l0.102 0.175c0.067 0.105 0.221 0.124 0.343 0.041 0.116-0.079 0.163-0.221 0.107-0.327l-0.102-0.175c-0.063-0.108-0.215-0.132-0.339-0.053zM21.928 13.414c-0.124 0.079-0.174 0.23-0.111 0.338l0.102 0.175c0.067 0.105 0.221 0.124 0.343 0.042 0.116-0.079 0.163-0.221 0.107-0.327l-0.102-0.175c-0.063-0.108-0.215-0.132-0.339-0.053zM21 13.991c-0.124 0.079-0.174 0.23-0.111 0.338l0.102 0.175c0.067 0.105 0.221 0.124 0.343 0.041 0.116-0.079 0.163-0.221 0.107-0.327l-0.102-0.175c-0.063-0.108-0.215-0.132-0.34-0.053zM20.072 14.567c-0.124 0.079-0.174 0.23-0.111 0.338l0.102 0.175c0.067 0.105 0.221 0.124 0.343 0.041 0.116-0.079 0.163-0.221 0.107-0.326l-0.102-0.175c-0.063-0.108-0.215-0.132-0.34-0.053zM19.145 15.143c-0.124 0.079-0.174 0.23-0.111 0.338l0.102 0.175c0.063 0.108 0.215 0.132 0.339 0.053s0.174-0.23 0.111-0.338l-0.102-0.175c-0.063-0.108-0.215-0.132-0.339-0.053h-0zM18.217 15.719c-0.124 0.079-0.174 0.23-0.111 0.338l0.102 0.175c0.063 0.108 0.215 0.132 0.339 0.053s0.174-0.23 0.111-0.338l-0.102-0.175c-0.063-0.108-0.215-0.132-0.339-0.053h-0zM17.289 16.295c-0.124 0.079-0.174 0.23-0.111 0.338l0.102 0.175c0.063 0.108 0.215 0.131 0.34 0.052s0.174-0.23 0.111-0.337l-0.102-0.175c-0.063-0.108-0.215-0.132-0.34-0.053zM16.362 16.871c-0.124 0.079-0.174 0.23-0.111 0.338l0.102 0.175c0.063 0.108 0.215 0.131 0.34 0.052s0.174-0.23 0.111-0.337l-0.102-0.175c-0.063-0.108-0.215-0.132-0.339-0.053zM15.434 17.447c-0.124 0.079-0.174 0.23-0.111 0.338l0.102 0.175c0.063 0.108 0.215 0.131 0.34 0.052s0.174-0.23 0.111-0.337l-0.102-0.175c-0.063-0.108-0.215-0.132-0.339-0.053zM14.506 18.023c-0.124 0.079-0.174 0.23-0.111 0.338v0l0.102 0.175c0.063 0.108 0.215 0.131 0.34 0.052s0.174-0.23 0.111-0.337l-0.102-0.175c-0.063-0.108-0.215-0.132-0.339-0.053zM13.579 18.599c-0.124 0.079-0.174 0.23-0.111 0.338v0l0.102 0.175c0.063 0.108 0.215 0.131 0.34 0.052s0.174-0.23 0.111-0.337l-0.102-0.175c-0.063-0.108-0.215-0.132-0.339-0.053z"></path>
</symbol>
<symbol id="icon-satellite" viewBox="0 0 31 32">
<path fill="#407093" style="fill: var(--color1, #407093)" d="M10.755 23.157l-0.863-0.413-5.128 7.581h5.723l0.551-0.359v-6.549l-0.283-0.26z"></path>
<path fill="#365e7d" style="fill: var(--color2, #365e7d)" d="M9.97 22.782l-1.941-0.929h-0.366l-5.487 8.114 0.326 0.359h2.365l5.103-7.544z"></path>
<path fill="#4a80aa" style="fill: var(--color3, #4a80aa)" d="M12.069 29.967h-7.567c-0.344 0-0.623 0.278-0.623 0.622v0.789c0 0.344 0.279 0.623 0.622 0.623h7.567c0.344 0 0.623-0.279 0.623-0.623v-0.789c0-0.344-0.279-0.622-0.623-0.622z"></path>
<path fill="#407093" style="fill: var(--color1, #407093)" d="M4.008 31.377v-0.789c0-0.344 0.279-0.622 0.622-0.622h-4.008c-0.344 0-0.623 0.278-0.623 0.622v0.789c0 0.344 0.279 0.623 0.623 0.623h4.008c-0.344 0-0.622-0.279-0.622-0.623z"></path>
<path fill="#4a80aa" style="fill: var(--color3, #4a80aa)" d="M9.71 18.278c-0.23 0.464-0.364 1.011-0.364 1.589 0 1.548 0.963 2.871 2.322 3.403l0.025 0.009c0.604-0.193 1.118-0.523 1.525-0.955l0.002-0.002v-0.795l-3.51-3.249z"></path>
<path fill="#407093" style="fill: var(--color1, #407093)" d="M9.407 19.879c0-0.557 0.128-1.083 0.357-1.552l-1.122-1.039h-0.455c-0.688 0.651-1.116 1.57-1.116 2.589 0 1.967 1.595 3.562 3.562 3.562 0.418 0 0.819-0.072 1.191-0.204l-0.025 0.008c-1.404-0.499-2.391-1.816-2.391-3.364v0z"></path>
<path fill="#ffd086" style="fill: var(--color4, #ffd086)" d="M30.085 0.423c-0.261-0.261-0.622-0.423-1.021-0.423s-0.759 0.162-1.021 0.423l-1.377 1.377v0.174l1.719 1.792 0.322 0.075 1.377-1.377c0.261-0.261 0.423-0.622 0.423-1.020s-0.161-0.759-0.423-1.020v0z"></path>
<path fill="#ffc365" style="fill: var(--color5, #ffc365)" d="M30.466 1.104c-0.065-0.268-0.199-0.499-0.381-0.681v0c-0.261-0.261-0.622-0.423-1.021-0.423s-0.759 0.162-1.021 0.423l-1.377 1.377v0.174l0.912 0.95c0.484-0.506 0.927-0.962 1.374-1.415l-0.014 0.014c0.463-0.462 1.138-0.466 1.527-0.42z"></path>
<path fill="#365e7d" style="fill: var(--color2, #365e7d)" d="M25.37 4.091c-0.016 0-0.032-0.001-0.048-0.002l-15.916-1.567c-0.246-0.025-0.436-0.231-0.436-0.481 0-0.267 0.216-0.483 0.483-0.483 0.017 0 0.033 0.001 0.049 0.002l-0.002-0 15.916 1.567c0.248 0.022 0.441 0.229 0.441 0.481 0 0.267-0.216 0.483-0.483 0.483-0.002 0-0.003 0-0.005-0h0z"></path>
<path fill="#407093" style="fill: var(--color1, #407093)" d="M14.010 7.071c-0.266-0.002-0.48-0.217-0.48-0.483 0-0.222 0.15-0.41 0.355-0.466l0.003-0.001 11.36-2.98c0.037-0.010 0.079-0.016 0.122-0.016 0.267 0 0.483 0.216 0.483 0.483 0 0.223-0.151 0.411-0.357 0.466l-0.003 0.001-11.36 2.98c-0.041 0.011-0.082 0.016-0.123 0.016z"></path>
<path fill="#365e7d" style="fill: var(--color2, #365e7d)" d="M28.455 21.548c-0.245 0-0.455-0.186-0.48-0.436l-1.557-15.926c-0-0.008-0.001-0.017-0.001-0.026 0-0.267 0.216-0.483 0.483-0.483 0.243 0 0.444 0.179 0.478 0.413l0 0.003 1.558 15.926c0.001 0.014 0.002 0.030 0.002 0.047 0 0.267-0.216 0.483-0.483 0.483-0 0-0 0-0 0h0z"></path>
<path fill="#407093" style="fill: var(--color1, #407093)" d="M23.874 17.028c-0 0-0 0-0.001 0-0.267 0-0.483-0.216-0.483-0.483 0-0.044 0.006-0.087 0.017-0.127l-0.001 0.003 3.024-11.404c0.057-0.208 0.244-0.359 0.467-0.359 0.267 0 0.483 0.216 0.483 0.483 0 0.044-0.006 0.087-0.017 0.127l0.001-0.003-3.024 11.404c-0.057 0.208-0.244 0.359-0.466 0.359h-0z"></path>
<path fill="#ffc365" style="fill: var(--color5, #ffc365)" d="M25.283 3.184l1.381-1.381 2.041 2.041-1.381 1.381-2.041-2.041z"></path>
<path fill="#ffa90f" style="fill: var(--color6, #ffa90f)" d="M26.331 4.227c0.332-0.347 0.85-0.89 1.352-1.411l-1.016-1.016-1.381 1.381 1.045 1.046z"></path>
<path fill="#4a80aa" style="fill: var(--color3, #4a80aa)" d="M27.634 6.012c-0.123 0-0.247-0.047-0.341-0.142l-2.656-2.656c-0.087-0.087-0.141-0.208-0.141-0.341 0-0.267 0.216-0.483 0.483-0.483 0.133 0 0.254 0.054 0.341 0.141l2.656 2.656c0.087 0.087 0.142 0.208 0.142 0.341 0 0.267-0.216 0.483-0.483 0.483-0 0-0 0-0 0v0z"></path>
<path fill="#b5dcff" style="fill: var(--color7, #b5dcff)" d="M27.947 22.417l-16.17-16.31c-2.144 4.84-2.516 10.035-0.911 14.515 4.432 3.998 11.053 4.612 17.148 2.098l-0.068-0.304z"></path>
<path fill="#8bcaff" style="fill: var(--color8, #8bcaff)" d="M11.863 6.194l-3.705-3.737-0.371 0.037c-2.61 6.33-1.848 13.228 2.576 17.651 0.26 0.26 0.531 0.509 0.811 0.747l0.019 0.016c-1.865-4.474-1.562-9.797 0.67-14.714z"></path>
<path fill="#dbedff" style="fill: var(--color9, #dbedff)" d="M29.424 21.258l-16.4-16.4c-0.174 0.027-0.325 0.107-0.441 0.223l-0.713 0.713c-0.142 0.142-0.23 0.338-0.232 0.554v0l16.347 16.347c0.113 0.113 0.268 0.182 0.44 0.182s0.327-0.070 0.44-0.182l0.558-0.558c0.113-0.113 0.182-0.268 0.182-0.44s-0.070-0.327-0.182-0.44v0z"></path>
<path fill="#b5dcff" style="fill: var(--color7, #b5dcff)" d="M11.895 5.807l0.698-0.699c0.12-0.12 0.278-0.201 0.455-0.222l0.004-0-3.802-3.802c-0.113-0.113-0.268-0.182-0.44-0.182s-0.327 0.070-0.44 0.182v0l-0.558 0.558c-0.113 0.113-0.182 0.268-0.182 0.44s0.070 0.327 0.182 0.44l3.855 3.856c-0.005-0.206 0.070-0.414 0.227-0.571z"></path>
</symbol>
<symbol id="decore-plus" viewBox="0 0 30 32">
<path fill="#ff7152" style="fill: var(--color1, #ff7152)" d="M1.387 2.431h0.841v0.362h-0.841v0.953h-0.385v-0.953h-0.841v-0.362h0.841v-0.88h0.385v0.88z"></path>
<path fill="#e5e5e5" style="fill: var(--color2, #e5e5e5)" d="M1.387 9.178h0.841v0.362h-0.841v0.953h-0.385v-0.953h-0.841v-0.362h0.841v-0.88h0.385v0.88zM1.387 15.925h0.841v0.362h-0.841v0.953h-0.385v-0.953h-0.841v-0.362h0.841v-0.88h0.385v0.88zM8.134 2.431h0.841v0.362h-0.841v0.953h-0.385v-0.953h-0.841v-0.362h0.841v-0.88h0.385v0.88zM8.134 9.178h0.841v0.362h-0.841v0.953h-0.385v-0.953h-0.841v-0.362h0.841v-0.88h0.385v0.88zM8.134 15.925h0.841v0.362h-0.841v0.953h-0.385v-0.953h-0.841v-0.362h0.841v-0.88h0.385v0.88zM8.134 22.672h0.841v0.362h-0.841v0.953h-0.385v-0.953h-0.841v-0.362h0.841v-0.88h0.385v0.88zM14.881 2.431h0.841v0.362h-0.841v0.953h-0.385v-0.953h-0.841v-0.362h0.841v-0.88h0.385v0.88zM14.881 9.178h0.841v0.362h-0.841v0.953h-0.385v-0.953h-0.841v-0.362h0.841v-0.88h0.385v0.88z"></path>
<path fill="#6246e5" style="fill: var(--color3, #6246e5)" d="M14.881 15.925h0.841v0.362h-0.841v0.953h-0.385v-0.953h-0.841v-0.362h0.841v-0.88h0.385v0.88z"></path>
<path fill="#e5e5e5" style="fill: var(--color2, #e5e5e5)" d="M14.881 22.672h0.841v0.362h-0.841v0.953h-0.385v-0.953h-0.841v-0.362h0.841v-0.88h0.385v0.88zM14.881 29.419h0.841v0.362h-0.841v0.953h-0.385v-0.953h-0.841v-0.362h0.841v-0.88h0.385v0.88zM21.628 2.431h0.841v0.362h-0.841v0.953h-0.385v-0.953h-0.841v-0.362h0.841v-0.88h0.385v0.88zM21.628 9.178h0.841v0.362h-0.841v0.953h-0.385v-0.953h-0.841v-0.362h0.841v-0.88h0.385v0.88zM21.628 15.925h0.841v0.362h-0.841v0.953h-0.385v-0.953h-0.841v-0.362h0.841v-0.88h0.385v0.88zM21.628 22.672h0.841v0.362h-0.841v0.953h-0.385v-0.953h-0.841v-0.362h0.841v-0.88h0.385v0.88zM21.628 29.419h0.841v0.362h-0.841v0.953h-0.385v-0.953h-0.841v-0.362h0.841v-0.88h0.385v0.88zM28.375 2.431h0.841v0.362h-0.841v0.953h-0.385v-0.953h-0.841v-0.362h0.841v-0.88h0.385v0.88zM28.375 9.178h0.841v0.362h-0.841v0.953h-0.385v-0.953h-0.841v-0.362h0.841v-0.88h0.385v0.88zM28.375 15.925h0.841v0.362h-0.841v0.953h-0.385v-0.953h-0.841v-0.362h0.841v-0.88h0.385v0.88zM28.375 22.672h0.841v0.362h-0.841v0.953h-0.385v-0.953h-0.841v-0.362h0.841v-0.88h0.385v0.88zM28.375 29.419h0.841v0.362h-0.841v0.953h-0.385v-0.953h-0.841v-0.362h0.841v-0.88h0.385v0.88z"></path>
</symbol>
<symbol id="navigation" viewBox="0 0 32 32">
<path d="M28.909 4.416l-11 24c-0.162 0.346-0.508 0.581-0.908 0.581-0.522 0-0.95-0.4-0.996-0.909l-0-0.004-0.931-11.157-11.157-0.93c-0.516-0.044-0.918-0.473-0.918-0.997 0-0.401 0.236-0.747 0.577-0.906l0.006-0.003 24-11c0.122-0.058 0.266-0.091 0.417-0.091 0.552 0 1 0.448 1 1 0 0.151-0.033 0.294-0.093 0.422l0.003-0.006z"></path>
</symbol>
<symbol id="steps-1" viewBox="0 0 31 32">
<path fill="#f0bb1f" style="fill: var(--color1, #f0bb1f)" d="M8.667 0h14c4.786 0 8.667 3.88 8.667 8.667v14.667c0 4.786-3.88 8.667-8.667 8.667h-14c-4.786 0-8.667-3.88-8.667-8.667v-14.667c0-4.786 3.88-8.667 8.667-8.667z"></path>
<path fill="#fff" style="fill: var(--color2, #fff)" d="M9.030 11.651c-0.199-0.001-0.36-0.161-0.363-0.36v-2.261c0-0.201 0.162-0.363 0.363-0.363h2.261c0.198 0 0.36 0.162 0.36 0.363v0.787h8.699v-0.787c0-0.198 0.161-0.36 0.359-0.363h2.261c0.2 0.002 0.361 0.163 0.363 0.363v2.261c0 0.198-0.162 0.36-0.363 0.36h-0.787v8.699h0.787c0.198 0 0.36 0.161 0.363 0.359v2.261c-0.002 0.2-0.163 0.361-0.363 0.363h-2.261c-0.199-0.001-0.36-0.162-0.36-0.361 0-0.001 0-0.001 0-0.002v0-0.787h-8.699v0.787c0 0.198-0.161 0.36-0.359 0.363h-2.261c-0.2-0.002-0.361-0.163-0.363-0.363v-2.261c0-0.198 0.162-0.36 0.363-0.36h0.787v-8.699h-0.787zM22.615 10.931v-1.546h-1.547v1.547h1.547zM21.068 22.615h1.547v-1.547h-1.547v1.547zM11.65 20.709v0.755h8.7v-0.755c0 0 0 0 0 0 0-0.199 0.161-0.36 0.359-0.36h0.755v-8.699h-0.755c0 0 0 0 0 0-0.199 0-0.36-0.161-0.36-0.359v-0.755h-8.699v0.755c0 0 0 0 0 0 0 0.199-0.161 0.36-0.359 0.36h-0.755v8.699h0.755c0 0 0 0 0 0 0.199 0 0.36 0.161 0.36 0.359v0zM9.385 21.069v1.546h1.547v-1.547h-1.547zM10.932 10.931v-1.546h-1.547v1.547h1.547z"></path>
</symbol>
<symbol id="steps-2" viewBox="0 0 31 32">
<path fill="#f15a2b" style="fill: var(--color3, #f15a2b)" d="M8.667 0h14c4.786 0 8.667 3.88 8.667 8.667v14.667c0 4.786-3.88 8.667-8.667 8.667h-14c-4.786 0-8.667-3.88-8.667-8.667v-14.667c0-4.786 3.88-8.667 8.667-8.667z"></path>
<path fill="#fff" style="fill: var(--color2, #fff)" d="M21.879 21.286c-0.3 0.006-0.595-0.080-0.845-0.247-0.176-0.117-0.393-0.186-0.625-0.186s-0.449 0.069-0.63 0.189l0.004-0.003c-0.239 0.154-0.531 0.246-0.845 0.246s-0.606-0.092-0.851-0.25l0.006 0.004c-0.176-0.117-0.393-0.186-0.626-0.186s-0.449 0.070-0.63 0.189l0.004-0.003c-0.239 0.154-0.531 0.246-0.845 0.246s-0.606-0.092-0.851-0.25l0.006 0.004c-0.176-0.117-0.393-0.186-0.625-0.186s-0.449 0.070-0.63 0.189l0.004-0.003c-0.217 0.146-0.482 0.236-0.768 0.244l-0.002 0-0.015-0.432c0.203-0.005 0.4-0.069 0.567-0.185 0.239-0.154 0.531-0.246 0.844-0.246s0.605 0.092 0.851 0.25l-0.006-0.004c0.176 0.117 0.393 0.186 0.626 0.186s0.449-0.070 0.63-0.189l-0.004 0.003c0.239-0.154 0.531-0.246 0.845-0.246s0.606 0.092 0.851 0.25l-0.006-0.004c0.176 0.117 0.393 0.186 0.626 0.186s0.449-0.070 0.63-0.189l-0.004 0.003c0.239-0.154 0.531-0.246 0.845-0.246s0.606 0.092 0.851 0.25l-0.006-0.004c0.177 0.117 0.394 0.187 0.627 0.187s0.45-0.070 0.631-0.189l-0.004 0.003c0.229-0.154 0.511-0.246 0.815-0.246 0.010 0 0.020 0 0.030 0l-0.002-0v0.433c-0.008-0-0.018-0-0.028-0-0.224 0-0.431 0.070-0.601 0.189l0.003-0.002c-0.25 0.166-0.546 0.252-0.847 0.246zM10.119 21.285c-0.3 0.007-0.595-0.079-0.844-0.246-0.167-0.117-0.374-0.187-0.598-0.187-0.010 0-0.020 0-0.030 0l0.001-0v-0.432c0.3-0.007 0.595 0.080 0.845 0.247 0.183 0.127 0.403 0.192 0.625 0.186 0.223 0.006 0.443-0.060 0.626-0.187 0.249-0.167 0.544-0.252 0.843-0.246 0.292-0.007 0.58 0.075 0.825 0.235l-0.218 0.373c-0.162-0.11-0.362-0.176-0.577-0.176-0.010 0-0.021 0-0.031 0l0.002-0c-0.008-0-0.018-0-0.028-0-0.223 0-0.429 0.070-0.598 0.189l0.003-0.002c-0.25 0.167-0.545 0.253-0.846 0.247zM21.88 19.772c-0.301 0.007-0.595-0.080-0.846-0.247-0.177-0.117-0.393-0.186-0.626-0.186s-0.45 0.070-0.63 0.189l0.004-0.003c-0.239 0.154-0.531 0.246-0.844 0.246s-0.605-0.092-0.851-0.25l0.006 0.004c-0.176-0.117-0.393-0.186-0.625-0.186s-0.449 0.070-0.63 0.189l0.004-0.003c-0.239 0.154-0.531 0.246-0.845 0.246s-0.606-0.092-0.851-0.25l0.006 0.004c-0.176-0.117-0.393-0.186-0.625-0.186s-0.449 0.070-0.63 0.189l0.004-0.003c-0.249 0.167-0.545 0.253-0.845 0.247-0.3 0.007-0.595-0.080-0.845-0.247-0.166-0.117-0.373-0.186-0.596-0.186-0.010 0-0.020 0-0.031 0l0.002-0c-0.008-0-0.018-0-0.028-0-0.223 0-0.43 0.070-0.6 0.189l0.003-0.002c-0.249 0.167-0.544 0.252-0.843 0.246-0.3 0.007-0.595-0.080-0.845-0.247-0.166-0.117-0.373-0.186-0.596-0.186-0.011 0-0.021 0-0.032 0l0.002-0v-0.432c0.3-0.007 0.595 0.080 0.845 0.246 0.183 0.127 0.403 0.192 0.625 0.187 0.008 0 0.018 0 0.028 0 0.223 0 0.431-0.070 0.6-0.189l-0.003 0.002c0.229-0.155 0.511-0.247 0.815-0.247 0.010 0 0.020 0 0.030 0l-0.002-0c0.3-0.006 0.595 0.080 0.845 0.247 0.183 0.127 0.402 0.192 0.625 0.187 0.223 0.005 0.442-0.060 0.625-0.187 0.239-0.154 0.531-0.246 0.845-0.246s0.606 0.092 0.851 0.25l-0.006-0.004c0.176 0.117 0.393 0.186 0.625 0.186s0.449-0.070 0.63-0.189l-0.004 0.003c0.239-0.154 0.531-0.246 0.845-0.246s0.606 0.092 0.851 0.25l-0.006-0.004c0.176 0.117 0.393 0.186 0.625 0.186s0.449-0.070 0.63-0.189l-0.004 0.003c0.239-0.154 0.532-0.246 0.845-0.246s0.606 0.092 0.852 0.25l-0.006-0.004c0.177 0.117 0.393 0.186 0.626 0.186s0.449-0.069 0.63-0.189l-0.004 0.003c0.23-0.155 0.512-0.247 0.817-0.247 0.010 0 0.020 0 0.030 0l-0.002-0v0.433c-0.009-0-0.019-0-0.030-0-0.223 0-0.43 0.070-0.6 0.189l0.003-0.002c-0.25 0.167-0.545 0.252-0.845 0.246zM21.879 18.259c-0.3 0.007-0.595-0.080-0.845-0.247-0.167-0.117-0.374-0.186-0.597-0.186-0.010 0-0.020 0-0.030 0l0.001-0c-0.010-0-0.022-0.001-0.034-0.001-0.16 0-0.311 0.038-0.445 0.105l0.006-0.003-0.191-0.389c0.207-0.101 0.434-0.151 0.664-0.145 0.3-0.007 0.595 0.080 0.845 0.247 0.177 0.117 0.394 0.187 0.627 0.187s0.45-0.070 0.631-0.189l-0.004 0.003c0.229-0.155 0.512-0.247 0.816-0.247 0.010 0 0.019 0 0.029 0l-0.001-0v0.433c-0.009-0-0.018-0-0.029-0-0.223 0-0.43 0.070-0.6 0.189l0.003-0.002c-0.229 0.154-0.512 0.246-0.816 0.246-0.011 0-0.022-0-0.033-0l0.002 0zM18.936 18.259c-0.3 0.007-0.593-0.080-0.843-0.246-0.176-0.117-0.393-0.186-0.626-0.186s-0.449 0.070-0.63 0.189l0.004-0.003c-0.239 0.154-0.531 0.246-0.845 0.246s-0.606-0.092-0.851-0.25l0.006 0.004c-0.176-0.117-0.393-0.186-0.626-0.186s-0.449 0.070-0.63 0.189l0.004-0.003c-0.249 0.167-0.544 0.252-0.844 0.246-0.3 0.007-0.595-0.080-0.845-0.247-0.167-0.117-0.374-0.186-0.597-0.186-0.010 0-0.020 0-0.030 0l0.001-0c-0.008-0-0.018-0-0.027-0-0.223 0-0.43 0.070-0.599 0.189l0.003-0.002c-0.25 0.167-0.545 0.252-0.845 0.246-0.3 0.007-0.595-0.080-0.844-0.247-0.167-0.117-0.374-0.186-0.597-0.186-0.010 0-0.020 0-0.031 0l0.002-0v-0.432c0.3-0.007 0.595 0.079 0.845 0.246 0.183 0.127 0.403 0.192 0.625 0.187 0.223 0.005 0.443-0.060 0.626-0.187 0.249-0.167 0.544-0.253 0.843-0.247 0.3-0.006 0.595 0.080 0.845 0.247 0.183 0.127 0.402 0.192 0.625 0.187 0.223 0.005 0.442-0.060 0.626-0.187 0.239-0.154 0.531-0.246 0.845-0.246s0.606 0.092 0.851 0.25l-0.006-0.004c0.176 0.117 0.393 0.186 0.625 0.186s0.449-0.069 0.63-0.189l-0.004 0.003c0.239-0.155 0.531-0.246 0.845-0.246s0.606 0.092 0.851 0.25l-0.006-0.004c0.172 0.117 0.384 0.186 0.612 0.186 0.029 0 0.058-0.001 0.087-0.003l-0.004 0 0.058 0.429c-0.044 0.005-0.087 0.007-0.131 0.007zM21.88 16.745c-0.301 0.007-0.595-0.080-0.846-0.246-0.176-0.117-0.393-0.186-0.626-0.186s-0.45 0.070-0.63 0.189l0.004-0.003c-0.239 0.154-0.531 0.246-0.844 0.246s-0.605-0.092-0.851-0.25l0.006 0.004c-0.176-0.117-0.393-0.186-0.625-0.186s-0.449 0.070-0.63 0.189l0.004-0.003c-0.239 0.154-0.531 0.246-0.845 0.246s-0.606-0.092-0.851-0.25l0.006 0.004c-0.176-0.117-0.393-0.186-0.625-0.186s-0.449 0.070-0.63 0.189l0.004-0.003c-0.249 0.167-0.545 0.253-0.845 0.247-0.3 0.006-0.595-0.080-0.845-0.247-0.167-0.117-0.374-0.187-0.597-0.187-0.010 0-0.020 0-0.030 0l0.001-0c-0.008-0-0.018-0-0.028-0-0.223 0-0.43 0.070-0.6 0.189l0.003-0.002c-0.249 0.167-0.544 0.252-0.843 0.247-0.3 0.006-0.595-0.080-0.845-0.247-0.167-0.117-0.374-0.187-0.597-0.187-0.010 0-0.021 0-0.031 0l0.002-0v-0.432c0.3-0.007 0.595 0.080 0.845 0.247 0.183 0.127 0.403 0.192 0.625 0.186 0.223 0.006 0.442-0.060 0.625-0.187 0.229-0.154 0.51-0.246 0.814-0.246 0.010 0 0.021 0 0.031 0l-0.002-0c0.3-0.007 0.595 0.080 0.845 0.247 0.183 0.127 0.402 0.192 0.625 0.186 0.223 0.006 0.442-0.060 0.625-0.187 0.239-0.154 0.531-0.246 0.845-0.246s0.606 0.092 0.851 0.25l-0.006-0.004c0.176 0.117 0.393 0.186 0.625 0.186s0.449-0.070 0.63-0.189l-0.004 0.003c0.239-0.154 0.531-0.246 0.845-0.246s0.606 0.092 0.851 0.25l-0.006-0.004c0.176 0.117 0.393 0.186 0.625 0.186s0.449-0.069 0.63-0.189l-0.004 0.003c0.239-0.154 0.532-0.246 0.845-0.246s0.606 0.092 0.852 0.25l-0.006-0.004c0.177 0.117 0.393 0.186 0.626 0.186s0.449-0.069 0.63-0.189l-0.004 0.003c0.25-0.167 0.545-0.252 0.845-0.246v0.433c-0.009-0-0.019-0-0.029-0-0.224 0-0.431 0.070-0.601 0.189l0.003-0.002c-0.25 0.166-0.545 0.251-0.845 0.245z"></path>
<path fill="#fff" style="fill: var(--color2, #fff)" d="M18.799 16.561l-0.408-0.143c0.084-0.232 0.132-0.5 0.132-0.78 0-0.393-0.096-0.763-0.265-1.090l0.006 0.013-1.485-2.909c-0.015-0.028-0.023-0.062-0.023-0.098 0-0.099 0.067-0.183 0.158-0.209l0.002-0 2.96-0.789c0.166-0.043 0.286-0.191 0.286-0.367 0-0.209-0.169-0.378-0.378-0.378-0.033 0-0.065 0.004-0.095 0.012l0.003-0.001-3.583 0.856c-0.228 0.056-0.395 0.258-0.395 0.499 0 0.089 0.023 0.173 0.063 0.246l-0.001-0.003 1.064 1.976c0.016 0.030 0.026 0.065 0.026 0.102 0 0.081-0.045 0.152-0.111 0.189l-0.001 0.001-1.373 0.757-0.209-0.379 1.185-0.653-0.961-1.788c-0.071-0.13-0.113-0.284-0.113-0.448 0-0.445 0.307-0.818 0.721-0.918l0.006-0.001 3.58-0.856c0.060-0.016 0.128-0.025 0.199-0.025 0.448 0 0.811 0.363 0.811 0.811 0 0.377-0.257 0.694-0.606 0.785l-0.006 0.001-2.702 0.72 1.364 2.67c0.193 0.37 0.306 0.809 0.306 1.274 0 0.33-0.057 0.647-0.162 0.941l0.006-0.020zM14.415 14.489l-2.627 1.447 0.209 0.379 2.627-1.447-0.209-0.379z"></path>
<path fill="#fff" style="fill: var(--color2, #fff)" d="M20.757 15.123c-0.896 0-1.622-0.726-1.622-1.622s0.726-1.622 1.622-1.622v0c0.896 0 1.622 0.726 1.622 1.622s-0.726 1.622-1.622 1.622v0zM20.757 12.313c-0.008-0-0.018-0-0.028-0-0.657 0-1.189 0.532-1.189 1.189s0.532 1.189 1.189 1.189c0.010 0 0.020-0 0.030-0l-0.001 0c0.645-0.016 1.161-0.542 1.161-1.189s-0.517-1.173-1.16-1.189l-0.001-0z"></path>
</symbol>
<symbol id="steps-3" viewBox="0 0 31 32">
<path fill="#006380" style="fill: var(--color4, #006380)" d="M8.667 0h14c4.786 0 8.667 3.88 8.667 8.667v14.667c0 4.786-3.88 8.667-8.667 8.667h-14c-4.786 0-8.667-3.88-8.667-8.667v-14.667c0-4.786 3.88-8.667 8.667-8.667z"></path>
<path fill="#fff" style="fill: var(--color2, #fff)" d="M11 17.417c-0.552 0-1 0.448-1 1s0.448 1 1 1v0c0.552 0 1-0.448 1-1s-0.448-1-1-1v0zM11 18.917c-0.276 0-0.5-0.224-0.5-0.5s0.224-0.5 0.5-0.5v0c0.276 0 0.5 0.224 0.5 0.5s-0.224 0.5-0.5 0.5v0zM21 17.417c-0.552 0-1 0.448-1 1s0.448 1 1 1v0c0.552 0 1-0.448 1-1s-0.448-1-1-1v0zM21 18.917c-0.276 0-0.5-0.224-0.5-0.5s0.224-0.5 0.5-0.5v0c0.276 0 0.5 0.224 0.5 0.5s-0.224 0.5-0.5 0.5v0zM13.75 18.667h4.5v0.5h-4.5v-0.5zM13.75 17.667h4.5v0.5h-4.5v-0.5zM15.25 13.917h1.5v0.5h-1.5v-0.5z"></path>
<path fill="#fff" style="fill: var(--color2, #fff)" d="M23.5 16.167v-0.5c-0.001-0.414-0.336-0.749-0.75-0.75h-0.99l-0.517-1.815-0.155-0.617c-0.085-0.328-0.378-0.567-0.727-0.567h-2.11v-1c-0.001-0.276-0.224-0.499-0.5-0.5h-3.5c-0.276 0.001-0.499 0.224-0.5 0.5v1h-2.11c-0.349 0-0.643 0.239-0.726 0.562l-0.001 0.005-0.153 0.615-0.52 1.817h-0.99c-0.414 0.001-0.749 0.336-0.75 0.75v0.5c0.001 0.266 0.14 0.499 0.35 0.631l0.003 0.002c-0.218 0.224-0.353 0.53-0.353 0.867v3c0.001 0.22 0.097 0.418 0.249 0.554l0.001 0.001v0.945c0.001 0.414 0.336 0.749 0.75 0.75h2c0.414-0.001 0.749-0.336 0.75-0.75v-0.75h7.5v0.75c0.001 0.414 0.336 0.749 0.75 0.75h2c0.414-0.001 0.749-0.336 0.75-0.75v-0.945c0.153-0.137 0.249-0.334 0.25-0.555v-3c0-0.324-0.127-0.635-0.353-0.867 0.212-0.134 0.352-0.367 0.353-0.633v-0zM14.25 10.917h3.5v1h-3.5v-1zM11.397 12.607c0.028-0.11 0.126-0.19 0.243-0.19h8.72c0.117 0 0.215 0.080 0.242 0.188l0 0.002 0.077 0.31h-9.36l0.077-0.31zM11.187 13.417h9.626l0.855 3h-7.191c-0.123-0.714-0.738-1.25-1.477-1.25s-1.354 0.536-1.476 1.241l-0.001 0.009h-1.19l0.855-3zM13.965 16.417h-1.931c0.112-0.436 0.502-0.753 0.965-0.753s0.853 0.317 0.964 0.746l0.002 0.007zM9 15.667c0-0.138 0.112-0.25 0.25-0.25v0h0.847l-0.285 1h-0.563c-0.138 0-0.25-0.112-0.25-0.25v0-0.5zM11.75 22.167c0 0.138-0.112 0.25-0.25 0.25v0h-2c-0.138 0-0.25-0.112-0.25-0.25v0-0.75h2.5v0.75zM22.75 22.167c0 0.138-0.112 0.25-0.25 0.25v0h-2c-0.138 0-0.25-0.112-0.25-0.25v0-0.75h2.5v0.75zM23 20.667c0 0.138-0.112 0.25-0.25 0.25v0h-13.5c-0.138 0-0.25-0.112-0.25-0.25v0-0.25h14v0.25zM23 19.917h-14v-2.25c0.001-0.414 0.336-0.749 0.75-0.75h12.5c0.414 0.001 0.749 0.336 0.75 0.75v2.25zM23 16.167c0 0.138-0.112 0.25-0.25 0.25v0h-0.563l-0.285-1h0.847c0.138 0 0.25 0.112 0.25 0.25v0 0.5z"></path>
</symbol>
<symbol id="step-btn-leaf" viewBox="0 0 32 32">
<path fill="#84829a" style="fill: var(--color1, #84829a)" d="M31.211 0.343c-0.846-0.242-21.467-2.295-28.711 7.49-3.209 4.334-3.257 10.277-0.16 17.659-0.71 1.422-1.4 3.13-1.962 4.896l-0.072 0.263c-0.033 0.097-0.052 0.208-0.052 0.324 0 0.576 0.467 1.042 1.042 1.042 0.471 0 0.869-0.313 0.998-0.742l0.002-0.007c5.52-17.851 23.463-26.485 28.962-28.665 0.537-0.215 1.253-1.879-0.048-2.258z"></path>
<path fill="#84829a" style="fill: var(--color1, #84829a)" d="M5.65 27.726c2.985 1.253 5.973 1.895 8.747 1.895 2.496 0 4.823-0.514 6.83-1.554 4.034-2.094 6.503-6.098 7.131-11.584 0.64-5.589 1.44-9.090 2.107-11.232-5.931 2.736-18.651 9.829-24.816 22.475z"></path>
</symbol>
<symbol id="step-btn-map" viewBox="0 0 32 32">
<path fill="#84829a" style="fill: var(--color1, #84829a)" d="M30.857 0c-0.186 0-0.361 0.045-0.516 0.124l0.006-0.003-8.661 4.331-9.792-4.354c-0.016-0.007-0.034-0.007-0.055-0.014-0.080-0.032-0.172-0.056-0.269-0.068l-0.006-0.001c-0.041-0.004-0.090-0.006-0.138-0.006s-0.097 0.002-0.145 0.006l0.006-0c-0.102 0.013-0.195 0.037-0.282 0.071l0.008-0.003c-0.016 0.007-0.034 0.007-0.050 0.014l-10.286 4.571c-0.403 0.182-0.679 0.581-0.679 1.044 0 0 0 0 0 0v0 25.143c0 0 0 0 0 0 0 0.631 0.512 1.143 1.143 1.143 0.168 0 0.328-0.036 0.471-0.101l-0.007 0.003 9.822-4.366 9.822 4.366c0.016 0.007 0.034 0 0.053 0.009 0.274 0.126 0.594 0.119 0.864-0.018 0.018-0.007 0.039 0 0.057-0.011l9.143-4.571c0.378-0.192 0.633-0.577 0.633-1.023 0-0 0-0.001 0-0.001v0-25.143c0-0.631-0.512-1.143-1.143-1.143v0zM10.286 25.543l-8 3.554v-22.64l8-3.554v22.64zM20.571 29.097l-8-3.554v-22.64l8 3.554v22.64zM29.714 25.579l-6.857 3.429v-22.587l6.857-3.429v22.587z"></path>
</symbol>
<symbol id="step-btn-send" viewBox="0 0 32 32">
<path fill="#84829a" style="fill: var(--color1, #84829a)" d="M28.213 2.839l-14.439 14.494c-0.148-0.087-0.32-0.168-0.5-0.233l-0.022-0.007-9.531-3.225c-0.586-0.148-1.013-0.671-1.013-1.294s0.427-1.145 1.004-1.292l0.009-0.002 23.653-8.411c0.143-0.051 0.308-0.081 0.479-0.082h0.001c0.006-0 0.012-0 0.019-0 0.121 0 0.238 0.019 0.348 0.055l-0.008-0.002zM29.134 4.626l-8.414 23.68c-0.182 0.533-0.679 0.909-1.264 0.909-0.024 0-0.048-0.001-0.072-0.002l0.003 0c-0.018 0.001-0.040 0.001-0.062 0.001-0.594 0-1.098-0.388-1.271-0.925l-0.003-0.009-3.173-9.534c-0.072-0.201-0.153-0.373-0.248-0.536l0.008 0.015 14.521-14.439c0.080 0.274 0.071 0.571-0.027 0.839z"></path>
</symbol>
<symbol id="steps-icon-bild" viewBox="0 0 32 32">
<path fill="#84829a" style="fill: var(--color1, #84829a)" d="M0.534 30.934h3.2v-17.6c0-0.296 0.24-0.534 0.532-0.534h7.468v-12.266c0-0.296 0.24-0.534 0.532-0.534h13.868c0.294 0 0.532 0.24 0.532 0.534v30.4h4.8c0.010-0.001 0.021-0.001 0.033-0.001 0.295 0 0.534 0.239 0.534 0.534s-0.239 0.534-0.534 0.534c-0.012 0-0.023-0-0.034-0.001l0.002 0h-30.932c-0.281-0.018-0.501-0.25-0.501-0.533s0.221-0.515 0.5-0.533l0.002-0zM20.8 30.934h2.134v-4.8c0-0.295-0.239-0.534-0.534-0.534v0h-1.066c-0.295 0-0.534 0.239-0.534 0.534v0 4.8zM18.666 13.334v17.6h1.068v-4.8c0-0.884 0.716-1.6 1.6-1.6v0h1.066c0.884 0 1.6 0.716 1.6 1.6v0 4.8h1.6v-29.868h-12.8v11.734h5.334c0.294 0 0.532 0.24 0.532 0.534zM4.8 30.934h12.8v-17.068h-12.8v17.068z"></path>
<path fill="#84829a" style="fill: var(--color1, #84829a)" d="M14.934 7.466h3.2c0.294 0 0.532 0.24 0.532 0.534v3.2c0 0.294-0.24 0.534-0.532 0.534h-3.2c-0.295 0-0.534-0.239-0.534-0.534v0-3.2c0-0.294 0.24-0.534 0.534-0.534zM15.466 10.666h2.134v-2.132h-2.134v2.132zM14.934 2.134h3.2c0.294 0 0.532 0.24 0.532 0.532v3.2c0 0.296-0.24 0.534-0.532 0.534h-3.2c-0.295 0-0.534-0.239-0.534-0.534v0-3.2c0-0.294 0.24-0.532 0.534-0.532zM15.466 5.334h2.134v-2.134h-2.134v2.134zM20.266 7.466h3.2c0.296 0 0.534 0.24 0.534 0.534v3.2c0 0.294-0.24 0.534-0.534 0.534h-3.2c-0.294-0.001-0.532-0.24-0.532-0.534 0 0 0 0 0 0v0-3.2c0-0.294 0.24-0.534 0.532-0.534zM20.8 10.666h2.134v-2.132h-2.134v2.132zM20.266 2.134h3.2c0.296 0 0.534 0.24 0.534 0.532v3.2c0 0.296-0.24 0.534-0.534 0.534h-3.2c-0.294-0.001-0.532-0.24-0.532-0.534 0 0 0 0 0 0v0-3.2c0-0.294 0.24-0.532 0.532-0.532zM20.8 5.334h2.134v-2.134h-2.134v2.134zM20.266 12.8h3.2c0.296 0 0.534 0.24 0.534 0.534v3.2c0 0.294-0.24 0.532-0.534 0.532h-3.2c-0.293-0.001-0.531-0.239-0.532-0.532v-3.2c0-0.296 0.24-0.534 0.532-0.534zM20.8 16h2.134v-2.134h-2.134v2.134zM20.266 18.134h3.2c0.296 0 0.534 0.238 0.534 0.532v3.2c0 0.296-0.24 0.534-0.534 0.534h-3.2c-0.294-0.001-0.532-0.24-0.532-0.534 0 0 0 0 0 0v0-3.2c0-0.294 0.24-0.532 0.532-0.532zM20.8 21.334h2.134v-2.134h-2.134v2.134zM10.134 24.534h-3.2c-0.295 0-0.534-0.239-0.534-0.534v0-3.2c0-0.294 0.24-0.534 0.534-0.534h3.2c0.294 0 0.532 0.24 0.532 0.534v3.2c0 0.294-0.24 0.534-0.532 0.534zM9.6 21.334h-2.134v2.132h2.134v-2.132zM10.134 19.2h-3.2c-0.295 0-0.534-0.239-0.534-0.534v0-3.2c0-0.294 0.24-0.532 0.534-0.532h3.2c0.294 0 0.532 0.238 0.532 0.532v3.2c0 0.294-0.24 0.534-0.532 0.534zM9.6 16h-2.134v2.134h2.134v-2.134zM10.134 29.866h-3.2c0 0 0 0 0 0-0.294 0-0.533-0.238-0.534-0.532v-3.2c0-0.296 0.24-0.534 0.534-0.534h3.2c0.294 0 0.532 0.24 0.532 0.534v3.2c0 0.294-0.24 0.532-0.532 0.532zM9.6 26.666h-2.134v2.134h2.134v-2.134zM15.466 24.534h-3.2c-0.294-0.001-0.532-0.24-0.532-0.534 0 0 0 0 0 0v0-3.2c0-0.294 0.24-0.534 0.532-0.534h3.2c0.296 0 0.534 0.24 0.534 0.534v3.2c0 0.294-0.24 0.534-0.534 0.534zM14.934 21.334h-2.134v2.132h2.134v-2.132zM15.466 19.2h-3.2c-0.294-0.001-0.532-0.24-0.532-0.534 0 0 0 0 0 0v0-3.2c0-0.294 0.24-0.532 0.532-0.532h3.2c0.296 0 0.534 0.238 0.534 0.532v3.2c0 0.294-0.24 0.534-0.534 0.534zM14.934 16h-2.134v2.134h2.134v-2.134zM15.466 29.866h-3.2c-0.293-0.001-0.531-0.239-0.532-0.532v-3.2c0-0.296 0.24-0.534 0.532-0.534h3.2c0.296 0 0.534 0.24 0.534 0.534v3.2c0 0.294-0.24 0.532-0.534 0.532zM14.934 26.666h-2.134v2.134h2.134v-2.134z"></path>
</symbol>
<symbol id="heart" viewBox="0 0 32 32">
<path fill="#4152ca" style="fill: var(--color1, #4152ca)" d="M29.383 3.927c-1.655-1.779-3.974-2.791-6.404-2.795-2.432 0.003-4.754 1.015-6.411 2.794l-0.565 0.597-0.565-0.597c-3.289-3.54-8.826-3.744-12.366-0.454-0.157 0.146-0.308 0.297-0.454 0.454-3.489 3.764-3.489 9.58 0 13.344l12.555 13.24c0.434 0.459 1.158 0.478 1.617 0.044 0.015-0.014 0.030-0.029 0.044-0.044l12.551-13.24c3.489-3.763 3.489-9.58-0-13.343zM27.728 15.695h-0.001l-11.725 12.366-11.726-12.366c-2.666-2.876-2.666-7.32 0-10.196 2.421-2.624 6.51-2.788 9.134-0.367 0.127 0.118 0.25 0.24 0.367 0.367l1.394 1.471c0.459 0.456 1.201 0.456 1.661 0l1.394-1.47c2.421-2.624 6.51-2.788 9.134-0.367 0.127 0.118 0.25 0.24 0.368 0.367 2.689 2.88 2.708 7.332 0 10.194z"></path>
</symbol>
<symbol id="input-icon" viewBox="0 0 37 32">
<path fill="none" stroke="#39425d" style="stroke: var(--color1, #39425d)" stroke-linejoin="miter" stroke-linecap="round" stroke-miterlimit="4" stroke-width="1.7778" d="M7.111 10.667l9.6 7.2c0.293 0.222 0.664 0.356 1.067 0.356s0.773-0.134 1.071-0.359l-0.004 0.003 9.6-7.2"></path>
<path fill="none" stroke="#39425d" style="stroke: var(--color1, #39425d)" stroke-linejoin="miter" stroke-linecap="butt" stroke-miterlimit="4" stroke-width="1.7778" d="M8.889 0.889h19.556c4.418 0 8 3.582 8 8v14.222c0 4.418-3.582 8-8 8h-19.556c-4.418 0-8-3.582-8-8v-14.222c0-4.418 3.582-8 8-8z"></path>
</symbol>
<symbol id="form-decore-plus" viewBox="0 0 30 32">
<path fill="#e5e5e5" style="fill: var(--color1, #e5e5e5)" d="M2.228 29.419v0.36h-2.067v-0.36h2.067zM1.387 28.539v2.195h-0.383v-2.195h0.383zM8.975 22.672v0.36h-2.067v-0.36h2.066zM8.134 21.792v2.195h-0.383v-2.195h0.383zM14.881 2.431h0.841v0.362h-0.841v0.953h-0.385v-0.953h-0.841v-0.362h0.841v-0.88h0.385v0.88zM15.722 9.178v0.36h-2.067v-0.36h2.066zM14.881 8.298v2.195h-0.383v-2.195h0.383z"></path>
<path fill="#6246e5" style="fill: var(--color2, #6246e5)" d="M15.722 15.925v0.36h-2.067v-0.36h2.066zM14.881 15.045v2.195h-0.383v-2.195h0.383z"></path>
<path fill="#e5e5e5" style="fill: var(--color1, #e5e5e5)" d="M15.722 22.672v0.36h-2.067v-0.36h2.066zM14.881 21.792v2.195h-0.383v-2.195h0.383zM15.722 29.419v0.36h-2.067v-0.36h2.066zM14.881 28.539v2.195h-0.383v-2.195h0.383zM22.469 2.431v0.36h-2.067v-0.36h2.067zM21.628 1.551v2.195h-0.383v-2.195h0.383zM22.469 9.178v0.36h-2.067v-0.36h2.067zM21.628 8.298v2.195h-0.383v-2.195h0.383zM22.469 15.925v0.36h-2.067v-0.36h2.067zM21.628 15.045v2.195h-0.383v-2.195h0.383zM22.469 22.672v0.36h-2.067v-0.36h2.067zM21.628 21.792v2.195h-0.383v-2.195h0.383zM22.469 29.419v0.36h-2.067v-0.36h2.067zM21.628 28.539v2.195h-0.383v-2.195h0.383z"></path>
<path fill="#ff7152" style="fill: var(--color3, #ff7152)" d="M28.375 2.431h0.841v0.362h-0.841v0.953h-0.385v-0.953h-0.841v-0.362h0.841v-0.88h0.385v0.88z"></path>
<path fill="#e5e5e5" style="fill: var(--color1, #e5e5e5)" d="M28.375 9.178h0.841v0.362h-0.841v0.953h-0.385v-0.953h-0.841v-0.362h0.841v-0.88h0.385v0.88zM29.216 15.925v0.36h-2.067v-0.36h2.067zM28.375 15.045v2.195h-0.383v-2.195h0.383zM29.216 22.672v0.36h-2.067v-0.36h2.067zM28.375 21.792v2.195h-0.383v-2.195h0.383zM29.216 29.419v0.36h-2.067v-0.36h2.067zM28.375 28.539v2.195h-0.383v-2.195h0.383z"></path>
</symbol>
<symbol id="icon-subscribe" viewBox="0 0 33 32">
<path fill="#fff" style="fill: var(--color1, #fff)" d="M27.353 9.448c0.503 0.871 0.435 1.908-0.177 2.706l-13.435 17.532c-0.554 0.723-1.466 1.092-2.399 0.913-0.914-0.176-1.638-0.842-1.889-1.737l-2.195-7.811-5.667-5.807c-0.65-0.666-0.865-1.626-0.56-2.505 0.301-0.869 1.058-1.499 1.99-1.622l21.901-2.869c0.997-0.131 1.929 0.329 2.432 1.2z"></path>
<path fill="#fff" style="fill: var(--color1, #fff)" d="M7.464 21.786l1.988 7.075c0.251 0.896 0.976 1.562 1.889 1.737 0.933 0.179 1.845-0.189 2.399-0.913l13.435-17.532c0.612-0.798 0.679-1.835 0.177-2.706l-20.096 11.602 0.207 0.736z"></path>
<path fill="#000" style="fill: var(--color2, #000)" d="M15.435 16.328c0.204 0.354 0.084 0.807-0.271 1.012l-7.699 4.445-0.207-0.736-0.534-0.547 7.699-4.445c0.355-0.205 0.808-0.083 1.012 0.271z"></path>
<path fill="#000" style="fill: var(--color2, #000)" d="M7.465 21.786l7.699-4.445c0.355-0.205 0.476-0.658 0.271-1.012l-8.178 4.721 0.207 0.736z"></path>
</symbol>
<symbol id="facebook-icon" viewBox="0 0 17 32">
<path d="M15.035 5.524c-0.751-0.25-1.616-0.4-2.514-0.413l-0.007-0c-1.024 0-3.23 0.706-3.23 2.075v3.284h5.238v5.524h-5.238v15.247h-5.278v-15.247h-2.604v-5.524h2.599v-2.784c0.002-4.194 1.819-7.685 6.188-7.685 1.497 0 4.175 0.084 5.632 0.623l-0.788 4.901z"></path>
</symbol>
<symbol id="instagram-icon" viewBox="0 0 35 32">
<path d="M29.954 0.102h-24.359c-2.782 0-5.047 2.091-5.047 4.66v22.492c0 2.57 2.264 4.66 5.047 4.66h24.359c2.783 0 5.047-2.090 5.047-4.66v-22.492c0-2.569-2.264-4.66-5.047-4.66zM32.982 27.253c0 1.542-1.359 2.796-3.028 2.796h-24.359c-1.669 0-3.028-1.254-3.028-2.796v-22.492c0-1.541 1.359-2.796 3.028-2.796h24.359c1.669 0 3.028 1.254 3.028 2.796v22.492z"></path>
<path d="M28.877 3.892c-1.113 0-2.019 0.836-2.019 1.864s0.906 1.864 2.019 1.864c1.113 0 2.019-0.836 2.019-1.864s-0.906-1.864-2.019-1.864z"></path>
<path d="M17.774 7.62c-5.009 0-9.084 3.763-9.084 8.388s4.075 8.388 9.084 8.388c5.009 0 9.084-3.763 9.084-8.388s-4.075-8.388-9.084-8.388zM17.774 22.531c-3.896 0-7.065-2.926-7.065-6.524s3.169-6.524 7.065-6.524c3.896 0 7.066 2.926 7.066 6.524s-3.169 6.524-7.066 6.524z"></path>
</symbol>
<symbol id="twitter-icon" viewBox="0 0 39 32">
<path d="M39.385 3.788c-1.354 0.607-2.924 1.056-4.568 1.266l-0.084 0.009c1.674-1.005 2.931-2.558 3.536-4.406l0.016-0.057c-1.474 0.889-3.189 1.568-5.017 1.937l-0.103 0.017c-1.477-1.574-3.57-2.555-5.893-2.555-4.459 0-8.074 3.615-8.074 8.074 0 0.001 0 0.002 0 0.002v-0c0 0.64 0.054 1.255 0.187 1.841-6.73-0.34-12.65-3.542-16.61-8.404l-0.033-0.042c-0.693 1.167-1.102 2.573-1.102 4.075 0 2.787 1.41 5.244 3.555 6.698l0.028 0.018c-1.344-0.037-2.596-0.401-3.688-1.015l0.040 0.021v0.089c0.005 3.894 2.753 7.145 6.416 7.924l0.053 0.009c-0.616 0.169-1.324 0.266-2.054 0.266-0.022 0-0.044-0-0.067-0l0.003 0c-0.038 0.001-0.082 0.001-0.127 0.001-0.496 0-0.98-0.051-1.448-0.147l0.046 0.008c1.074 3.229 4.029 5.533 7.534 5.624l0.011 0c-2.725 2.147-6.208 3.444-9.993 3.444-0.006 0-0.013 0-0.019 0h0.001c-0.662 0-1.297-0.030-1.932-0.111 3.478 2.272 7.738 3.623 12.312 3.623 0.026 0 0.052-0 0.078-0h-0.004c14.858 0 22.981-12.308 22.981-22.976 0-0.357-0.012-0.702-0.030-1.044 1.599-1.153 2.942-2.543 4.010-4.134l0.037-0.058z"></path>
</symbol>
<symbol id="google-play" viewBox="0 0 98 32">
<path fill="#080809" style="fill: var(--color1, #080809)" d="M16 0h65.829c8.837 0 16 7.163 16 16s-7.163 16-16 16h-65.829c-8.837 0-16-7.163-16-16s7.163-16 16-16z"></path>
<path fill="#2196f3" style="fill: var(--color2, #2196f3)" d="M26.064 15.544l-9.183 8.842c-0.43-0.294-0.685-0.783-0.681-1.303v-15.078c-0.004-0.521 0.251-1.010 0.681-1.303l9.183 8.842z"></path>
<path fill="#4caf50" style="fill: var(--color3, #4caf50)" d="M29.277 12.456l-3.213 3.089-9.183-8.842c0.035-0.027 0.071-0.052 0.108-0.075 0.485-0.294 1.091-0.304 1.586-0.025l10.702 5.853z"></path>
<path fill="#f0bb1f" style="fill: var(--color4, #f0bb1f)" d="M33.171 15.544c0.006 0.588-0.313 1.131-0.83 1.411l-3.064 1.677-3.213-3.089 3.213-3.089 3.064 1.677c0.517 0.28 0.836 0.823 0.83 1.411z"></path>
<path fill="#f15a2b" style="fill: var(--color5, #f15a2b)" d="M29.277 18.633l-10.702 5.853c-0.495 0.274-1.099 0.265-1.586-0.025-0.037-0.023-0.073-0.048-0.108-0.075l9.183-8.842 3.213 3.089z"></path>
<path fill="#fff" style="fill: var(--color6, #fff)" d="M43.908 10.862h-2.567v1.024h1.368c-0.183 0.49-0.629 0.79-1.309 0.79-0.995 0-1.609-0.636-1.609-1.507 0-0.9 0.644-1.536 1.507-1.536 0.578 0 1.039 0.263 1.251 0.6l0.995-0.571c-0.432-0.688-1.258-1.17-2.238-1.17-1.507 0-2.684 1.185-2.684 2.67 0 1.47 1.156 2.655 2.765 2.655 1.434 0 2.523-0.951 2.523-2.516v-0.439z"></path>
<path fill="#fff" style="fill: var(--color6, #fff)" d="M45.372 12.588v-0.907h1.829v-1.112h-1.829v-0.848h2.011v-1.126h-3.182v5.12h3.218v-1.126h-2.048z"></path>
<path fill="#fff" style="fill: var(--color6, #fff)" d="M51.152 8.594h-3.803v1.126h1.317v3.994h1.17v-3.994h1.317v-1.126z"></path>
<path fill="#fff" style="fill: var(--color6, #fff)" d="M52.762 8.594v5.12h1.17v-5.12h-1.17z"></path>
<path fill="#fff" style="fill: var(--color6, #fff)" d="M57.884 8.594h-3.803v1.126h1.317v3.994h1.17v-3.994h1.317v-1.126z"></path>
<path fill="#fff" style="fill: var(--color6, #fff)" d="M61.936 13.817c1.47 0 2.662-1.156 2.662-2.662s-1.192-2.662-2.662-2.662c-1.47 0-2.662 1.156-2.662 2.662s1.192 2.662 2.662 2.662zM61.936 12.676c-0.834 0-1.492-0.607-1.492-1.521s0.658-1.521 1.492-1.521c0.834 0 1.492 0.607 1.492 1.521s-0.658 1.521-1.492 1.521z"></path>
<path fill="#fff" style="fill: var(--color6, #fff)" d="M67.744 8.594v2.779l-1.975-2.779h-0.878v5.12h1.17v-2.779l1.975 2.779h0.878v-5.12h-1.17z"></path>
<path fill="#fff" style="fill: var(--color6, #fff)" d="M43.908 19.558v0.198c0 0.639-0.227 1.178-0.68 1.616-0.453 0.434-1.051 0.651-1.792 0.651-0.78 0-1.424-0.254-1.931-0.761-0.507-0.512-0.761-1.139-0.761-1.88s0.251-1.365 0.753-1.872c0.502-0.512 1.139-0.768 1.909-0.768 0.468 0 0.897 0.112 1.287 0.336 0.395 0.224 0.7 0.524 0.914 0.9l-0.344 0.205c-0.171-0.322-0.424-0.58-0.761-0.775-0.332-0.195-0.697-0.293-1.097-0.293-0.663 0-1.209 0.219-1.638 0.658-0.424 0.434-0.636 0.97-0.636 1.609s0.215 1.178 0.644 1.616c0.429 0.434 0.983 0.651 1.66 0.651 0.6 0 1.085-0.163 1.456-0.49s0.578-0.739 0.622-1.236h-2.172v-0.366h2.567z"></path>
<path fill="#fff" style="fill: var(--color6, #fff)" d="M49.1 21.255c-0.512 0.512-1.136 0.768-1.872 0.768s-1.36-0.256-1.872-0.768c-0.512-0.517-0.768-1.141-0.768-1.872s0.256-1.353 0.768-1.865c0.512-0.517 1.136-0.775 1.872-0.775s1.36 0.258 1.872 0.775c0.512 0.512 0.768 1.134 0.768 1.865s-0.256 1.356-0.768 1.872zM45.625 20.992c0.439 0.439 0.973 0.658 1.602 0.658s1.16-0.219 1.594-0.658c0.439-0.444 0.658-0.98 0.658-1.609s-0.219-1.163-0.658-1.602c-0.434-0.444-0.965-0.666-1.594-0.666s-1.163 0.222-1.602 0.666c-0.434 0.439-0.651 0.973-0.651 1.602s0.217 1.165 0.651 1.609z"></path>
<path fill="#fff" style="fill: var(--color6, #fff)" d="M55.071 21.255c-0.512 0.512-1.136 0.768-1.872 0.768s-1.36-0.256-1.872-0.768c-0.512-0.517-0.768-1.141-0.768-1.872s0.256-1.353 0.768-1.865c0.512-0.517 1.136-0.775 1.872-0.775s1.36 0.258 1.872 0.775c0.512 0.512 0.768 1.134 0.768 1.865s-0.256 1.356-0.768 1.872zM51.597 20.992c0.439 0.439 0.973 0.658 1.602 0.658s1.16-0.219 1.595-0.658c0.439-0.444 0.658-0.98 0.658-1.609s-0.219-1.163-0.658-1.602c-0.434-0.444-0.965-0.666-1.594-0.666s-1.163 0.222-1.602 0.666c-0.434 0.439-0.651 0.973-0.651 1.602s0.217 1.165 0.651 1.609z"></path>
<path fill="#fff" style="fill: var(--color6, #fff)" d="M61.693 19.558v0.198c0 0.639-0.227 1.178-0.68 1.616-0.453 0.434-1.051 0.651-1.792 0.651-0.78 0-1.424-0.254-1.931-0.761-0.507-0.512-0.761-1.139-0.761-1.88s0.251-1.365 0.753-1.872c0.502-0.512 1.139-0.768 1.909-0.768 0.468 0 0.897 0.112 1.287 0.336 0.395 0.224 0.7 0.524 0.914 0.9l-0.344 0.205c-0.171-0.322-0.424-0.58-0.761-0.775-0.332-0.195-0.697-0.293-1.097-0.293-0.663 0-1.209 0.219-1.638 0.658-0.424 0.434-0.636 0.97-0.636 1.609s0.215 1.178 0.644 1.616c0.429 0.434 0.983 0.651 1.66 0.651 0.6 0 1.085-0.163 1.456-0.49s0.578-0.739 0.622-1.236h-2.172v-0.366h2.567z"></path>
<path fill="#fff" style="fill: var(--color6, #fff)" d="M63.053 21.577h2.414v0.366h-2.801v-5.12h0.388v4.754z"></path>
<path fill="#fff" style="fill: var(--color6, #fff)" d="M66.66 21.577h2.56v0.366h-2.948v-5.12h2.911v0.366h-2.523v1.989h2.341v0.366h-2.341v2.033z"></path>
<path fill="#fff" style="fill: var(--color6, #fff)" d="M73.863 16.823c0.458 0 0.839 0.151 1.141 0.454s0.454 0.68 0.454 1.134c0 0.453-0.151 0.831-0.454 1.134-0.302 0.297-0.683 0.446-1.141 0.446h-1.353v1.953h-0.388v-5.12h1.741zM73.863 19.624c0.351 0 0.639-0.115 0.863-0.344 0.229-0.229 0.344-0.519 0.344-0.87 0-0.356-0.115-0.648-0.344-0.878-0.224-0.229-0.512-0.344-0.863-0.344h-1.353v2.436h1.353z"></path>
<path fill="#fff" style="fill: var(--color6, #fff)" d="M76.803 21.577h2.414v0.366h-2.801v-5.12h0.388v4.754z"></path>
<path fill="#fff" style="fill: var(--color6, #fff)" d="M83.61 21.943l-0.497-1.302h-2.567l-0.497 1.302h-0.41l1.99-5.12h0.41l1.982 5.12h-0.41zM80.692 20.275h2.282l-1.141-2.977-1.141 2.977z"></path>
<path fill="#fff" style="fill: var(--color6, #fff)" d="M87.663 16.823l-1.865 3.014v2.107h-0.388v-2.107l-1.865-3.014h0.439l1.624 2.64 1.616-2.64h0.439z"></path>
</symbol>
<symbol id="apple-store" viewBox="0 0 91 32">
<path fill="#080809" style="fill: var(--color1, #080809)" d="M16 0h59.429c8.837 0 16 7.163 16 16s-7.163 16-16 16h-59.429c-8.837 0-16-7.163-16-16s7.163-16 16-16z"></path>
<path fill="#fff" style="fill: var(--color6, #fff)" d="M19.922 21.943c-2.177-0.013-3.978-4.457-3.978-6.72 0-3.697 2.774-4.507 3.843-4.507 0.482 0 0.996 0.189 1.45 0.357 0.317 0.117 0.645 0.237 0.828 0.237 0.109 0 0.367-0.102 0.594-0.193 0.485-0.193 1.088-0.433 1.79-0.433 0.001 0 0.003 0 0.004 0 0.524 0 2.114 0.115 3.070 1.551l0.224 0.337-0.322 0.243c-0.46 0.347-1.3 0.981-1.3 2.236 0 1.487 0.951 2.058 1.408 2.333 0.202 0.121 0.41 0.247 0.41 0.52 0 0.179-1.426 4.016-3.498 4.016-0.507 0-0.865-0.152-1.181-0.287-0.32-0.136-0.596-0.253-1.051-0.253-0.231 0-0.523 0.109-0.832 0.225-0.423 0.158-0.901 0.337-1.444 0.337h-0.014z"></path>
<path fill="#fff" style="fill: var(--color6, #fff)" d="M24.667 7.314c0.054 1.945-1.337 3.294-2.726 3.21-0.229-1.552 1.389-3.21 2.726-3.21z"></path>
<path fill="#fff" style="fill: var(--color6, #fff)" d="M35.685 11.886h0.96l-1.306-3.84h-1.119l-1.306 3.84h0.96l0.192-0.603h1.426l0.192 0.603zM34.33 10.46l0.45-1.41 0.45 1.41h-0.9z"></path>
<path fill="#fff" style="fill: var(--color6, #fff)" d="M38.587 9.143l-0.571 1.739-0.571-1.739h-0.911l1.015 2.743h0.933l1.015-2.743h-0.911z"></path>
<path fill="#fff" style="fill: var(--color6, #fff)" d="M41.684 9.143v0.258c-0.181-0.208-0.45-0.335-0.817-0.335-0.719 0-1.311 0.631-1.311 1.448s0.592 1.448 1.311 1.448c0.368 0 0.636-0.126 0.817-0.335v0.258h0.823v-2.743h-0.823zM41.031 11.184c-0.379 0-0.653-0.258-0.653-0.669s0.274-0.669 0.653-0.669c0.379 0 0.653 0.258 0.653 0.669s-0.274 0.669-0.653 0.669z"></path>
<path fill="#fff" style="fill: var(--color6, #fff)" d="M43.111 11.886h0.823v-4.005h-0.823v4.005z"></path>
<path fill="#fff" style="fill: var(--color6, #fff)" d="M44.947 8.902c0.269 0 0.494-0.225 0.494-0.494s-0.225-0.494-0.494-0.494c-0.269 0-0.494 0.225-0.494 0.494s0.225 0.494 0.494 0.494zM44.536 11.886h0.823v-2.743h-0.823v2.743z"></path>
<path fill="#fff" style="fill: var(--color6, #fff)" d="M47.601 9.066c-0.368 0-0.636 0.126-0.817 0.335v-1.355h-0.823v3.84h0.823v-0.258c0.181 0.208 0.45 0.335 0.817 0.335 0.719 0 1.311-0.631 1.311-1.448s-0.592-1.448-1.311-1.448zM47.436 11.184c-0.379 0-0.653-0.258-0.653-0.669s0.274-0.669 0.653-0.669c0.379 0 0.653 0.258 0.653 0.669s-0.274 0.669-0.653 0.669z"></path>
<path fill="#fff" style="fill: var(--color6, #fff)" d="M49.378 11.886h0.823v-4.005h-0.823v4.005z"></path>
<path fill="#fff" style="fill: var(--color6, #fff)" d="M51.539 10.844h1.947c0.022-0.104 0.033-0.214 0.033-0.329 0-0.828-0.592-1.448-1.393-1.448-0.867 0-1.459 0.631-1.459 1.448s0.581 1.448 1.52 1.448c0.521 0 0.927-0.192 1.196-0.565l-0.658-0.379c-0.11 0.121-0.302 0.208-0.527 0.208-0.302 0-0.554-0.099-0.658-0.384zM51.522 10.229c0.077-0.28 0.285-0.433 0.598-0.433 0.247 0 0.494 0.115 0.581 0.433h-1.179z"></path>
<path fill="#fff" style="fill: var(--color6, #fff)" d="M56.674 11.963c0.806 0 1.454-0.631 1.454-1.448s-0.647-1.448-1.454-1.448c-0.806 0-1.454 0.631-1.454 1.448s0.647 1.448 1.454 1.448zM56.674 11.162c-0.357 0-0.631-0.258-0.631-0.647s0.274-0.647 0.631-0.647c0.357 0 0.631 0.258 0.631 0.647s-0.274 0.647-0.631 0.647z"></path>
<path fill="#fff" style="fill: var(--color6, #fff)" d="M60.2 9.066c-0.362 0-0.636 0.132-0.784 0.335v-0.258h-0.823v2.743h0.823v-1.498c0-0.389 0.208-0.565 0.51-0.565 0.263 0 0.477 0.159 0.477 0.499v1.563h0.823v-1.684c0-0.741-0.472-1.136-1.026-1.136z"></path>
<path fill="#fff" style="fill: var(--color6, #fff)" d="M64.77 9.933v-0.79h-0.565v-0.768l-0.823 0.247v0.521h-0.439v0.79h0.439v0.971c0 0.768 0.313 1.092 1.388 0.982v-0.746c-0.362 0.022-0.565 0-0.565-0.236v-0.971h0.565z"></path>
<path fill="#fff" style="fill: var(--color6, #fff)" d="M66.843 9.066c-0.362 0-0.636 0.132-0.784 0.335v-1.355h-0.823v3.84h0.823v-1.498c0-0.389 0.208-0.565 0.51-0.565 0.263 0 0.477 0.159 0.477 0.499v1.563h0.823v-1.684c0-0.741-0.472-1.136-1.026-1.136z"></path>
<path fill="#fff" style="fill: var(--color6, #fff)" d="M69.169 10.844h1.947c0.022-0.104 0.033-0.214 0.033-0.329 0-0.828-0.592-1.448-1.393-1.448-0.867 0-1.459 0.631-1.459 1.448s0.582 1.448 1.52 1.448c0.521 0 0.927-0.192 1.196-0.565l-0.658-0.379c-0.11 0.121-0.302 0.208-0.527 0.208-0.302 0-0.554-0.099-0.658-0.384zM69.152 10.229c0.077-0.28 0.285-0.433 0.598-0.433 0.247 0 0.494 0.115 0.582 0.433h-1.179z"></path>
<path fill="#fff" style="fill: var(--color6, #fff)" d="M37.531 21.943h1.6l-2.176-6.4h-1.865l-2.176 6.4h1.6l0.32-1.006h2.377l0.32 1.006zM35.273 19.566l0.75-2.35 0.75 2.35h-1.499z"></path>
<path fill="#fff" style="fill: var(--color6, #fff)" d="M42.365 17.244c-0.613 0-1.061 0.21-1.362 0.558v-0.43h-1.371v6.4h1.371v-2.258c0.302 0.347 0.75 0.558 1.362 0.558 1.198 0 2.185-1.051 2.185-2.414s-0.987-2.414-2.185-2.414zM42.091 20.773c-0.631 0-1.088-0.43-1.088-1.115s0.457-1.115 1.088-1.115c0.631 0 1.088 0.43 1.088 1.115s-0.457 1.115-1.088 1.115z"></path>
<path fill="#fff" style="fill: var(--color6, #fff)" d="M48.062 17.244c-0.613 0-1.061 0.21-1.362 0.558v-0.43h-1.371v6.4h1.371v-2.258c0.302 0.347 0.75 0.558 1.362 0.558 1.198 0 2.185-1.051 2.185-2.414s-0.987-2.414-2.185-2.414zM47.787 20.773c-0.631 0-1.088-0.43-1.088-1.115s0.457-1.115 1.088-1.115c0.631 0 1.088 0.43 1.088 1.115s-0.457 1.115-1.088 1.115z"></path>
<path fill="#fff" style="fill: var(--color6, #fff)" d="M51.024 21.943h1.371v-6.674h-1.371v6.674z"></path>
<path fill="#fff" style="fill: var(--color6, #fff)" d="M54.624 20.206h3.246c0.037-0.174 0.055-0.357 0.055-0.549 0-1.381-0.987-2.414-2.322-2.414-1.445 0-2.432 1.051-2.432 2.414s0.969 2.414 2.533 2.414c0.869 0 1.545-0.32 1.993-0.942l-1.097-0.631c-0.183 0.201-0.503 0.347-0.878 0.347-0.503 0-0.923-0.165-1.097-0.64zM54.597 19.182c0.128-0.466 0.475-0.722 0.997-0.722 0.411 0 0.823 0.192 0.969 0.722h-1.966z"></path>
<path fill="#fff" style="fill: var(--color6, #fff)" d="M63.274 22.071c1.39 0 2.377-0.731 2.377-1.966 0-1.353-1.088-1.691-2.057-1.984-0.997-0.302-1.152-0.503-1.152-0.795 0-0.256 0.229-0.485 0.686-0.485 0.585 0 0.887 0.283 1.106 0.741l1.234-0.722c-0.466-0.942-1.289-1.445-2.341-1.445-1.106 0-2.148 0.713-2.148 1.947 0 1.225 0.932 1.682 1.883 1.947 0.96 0.265 1.326 0.421 1.326 0.814 0 0.247-0.174 0.521-0.869 0.521-0.722 0-1.115-0.357-1.344-0.887l-1.262 0.731c0.357 0.942 1.216 1.582 2.56 1.582z"></path>
<path fill="#fff" style="fill: var(--color6, #fff)" d="M68.882 18.688v-1.317h-0.942v-1.28l-1.371 0.411v0.869h-0.731v1.317h0.731v1.618c0 1.28 0.521 1.819 2.313 1.637v-1.243c-0.603 0.037-0.942 0-0.942-0.393v-1.618h0.942z"></path>
<path fill="#fff" style="fill: var(--color6, #fff)" d="M71.763 22.071c1.344 0 2.423-1.051 2.423-2.414s-1.079-2.414-2.423-2.414c-1.344 0-2.423 1.051-2.423 2.414s1.079 2.414 2.423 2.414zM71.763 20.736c-0.594 0-1.051-0.43-1.051-1.079s0.457-1.079 1.051-1.079c0.594 0 1.051 0.43 1.051 1.079s-0.457 1.079-1.051 1.079z"></path>
<path fill="#fff" style="fill: var(--color6, #fff)" d="M76.333 18.185v-0.814h-1.371v4.571h1.371v-2.066c0-0.905 0.805-1.134 1.371-1.042v-1.554c-0.576 0-1.189 0.293-1.371 0.905z"></path>
<path fill="#fff" style="fill: var(--color6, #fff)" d="M79.437 20.206h3.246c0.037-0.174 0.055-0.357 0.055-0.549 0-1.381-0.987-2.414-2.322-2.414-1.445 0-2.432 1.051-2.432 2.414s0.969 2.414 2.533 2.414c0.869 0 1.545-0.32 1.993-0.942l-1.097-0.631c-0.183 0.201-0.503 0.347-0.878 0.347-0.503 0-0.923-0.165-1.097-0.64zM79.409 19.182c0.128-0.466 0.475-0.722 0.997-0.722 0.411 0 0.823 0.192 0.969 0.722h-1.966z"></path>
</symbol>
</defs>
</svg>

